<mxfile host="app.diagrams.net" modified="2022-11-28T09:29:20.944Z" agent="5.0 (Windows NT 10.0; Win64; x64) AppleWebKit/537.36 (KHTML, like Gecko) Chrome/107.0.0.0 Safari/537.36 Edg/107.0.1418.56" version="20.6.0" etag="lJGS_wEgVwDcFFiCPP28" type="github">
  <diagram id="i2mw_sQBPoUguHj9xEZJ" name="Sayfa -1">
    <mxGraphModel dx="821" dy="482" grid="1" gridSize="10" guides="1" tooltips="1" connect="1" arrows="1" fold="1" page="1" pageScale="1" pageWidth="827" pageHeight="1169" math="0" shadow="0">
      <root>
        <mxCell id="0" />
        <mxCell id="1" parent="0" />
        <mxCell id="J7pDQWudLYsrYL_kbWkB-2" value="Products" style="shape=table;startSize=30;container=1;collapsible=1;childLayout=tableLayout;fixedRows=1;rowLines=0;fontStyle=1;align=center;resizeLast=1;fillColor=#FFD966;" vertex="1" parent="1">
          <mxGeometry x="1600" y="797.5" width="180" height="210" as="geometry" />
        </mxCell>
        <mxCell id="J7pDQWudLYsrYL_kbWkB-3" value="" style="shape=tableRow;horizontal=0;startSize=0;swimlaneHead=0;swimlaneBody=0;fillColor=none;collapsible=0;dropTarget=0;points=[[0,0.5],[1,0.5]];portConstraint=eastwest;top=0;left=0;right=0;bottom=1;" vertex="1" parent="J7pDQWudLYsrYL_kbWkB-2">
          <mxGeometry y="30" width="180" height="30" as="geometry" />
        </mxCell>
        <mxCell id="J7pDQWudLYsrYL_kbWkB-4" value="PK" style="shape=partialRectangle;connectable=0;fillColor=none;top=0;left=0;bottom=0;right=0;fontStyle=1;overflow=hidden;" vertex="1" parent="J7pDQWudLYsrYL_kbWkB-3">
          <mxGeometry width="30" height="30" as="geometry">
            <mxRectangle width="30" height="30" as="alternateBounds" />
          </mxGeometry>
        </mxCell>
        <mxCell id="J7pDQWudLYsrYL_kbWkB-5" value="ID" style="shape=partialRectangle;connectable=0;fillColor=none;top=0;left=0;bottom=0;right=0;align=left;spacingLeft=6;fontStyle=5;overflow=hidden;" vertex="1" parent="J7pDQWudLYsrYL_kbWkB-3">
          <mxGeometry x="30" width="150" height="30" as="geometry">
            <mxRectangle width="150" height="30" as="alternateBounds" />
          </mxGeometry>
        </mxCell>
        <mxCell id="J7pDQWudLYsrYL_kbWkB-6" value="" style="shape=tableRow;horizontal=0;startSize=0;swimlaneHead=0;swimlaneBody=0;fillColor=none;collapsible=0;dropTarget=0;points=[[0,0.5],[1,0.5]];portConstraint=eastwest;top=0;left=0;right=0;bottom=0;" vertex="1" parent="J7pDQWudLYsrYL_kbWkB-2">
          <mxGeometry y="60" width="180" height="30" as="geometry" />
        </mxCell>
        <mxCell id="J7pDQWudLYsrYL_kbWkB-7" value="" style="shape=partialRectangle;connectable=0;fillColor=none;top=0;left=0;bottom=0;right=0;editable=1;overflow=hidden;" vertex="1" parent="J7pDQWudLYsrYL_kbWkB-6">
          <mxGeometry width="30" height="30" as="geometry">
            <mxRectangle width="30" height="30" as="alternateBounds" />
          </mxGeometry>
        </mxCell>
        <mxCell id="J7pDQWudLYsrYL_kbWkB-8" value="Name" style="shape=partialRectangle;connectable=0;fillColor=none;top=0;left=0;bottom=0;right=0;align=left;spacingLeft=6;overflow=hidden;" vertex="1" parent="J7pDQWudLYsrYL_kbWkB-6">
          <mxGeometry x="30" width="150" height="30" as="geometry">
            <mxRectangle width="150" height="30" as="alternateBounds" />
          </mxGeometry>
        </mxCell>
        <mxCell id="J7pDQWudLYsrYL_kbWkB-9" value="" style="shape=tableRow;horizontal=0;startSize=0;swimlaneHead=0;swimlaneBody=0;fillColor=none;collapsible=0;dropTarget=0;points=[[0,0.5],[1,0.5]];portConstraint=eastwest;top=0;left=0;right=0;bottom=0;" vertex="1" parent="J7pDQWudLYsrYL_kbWkB-2">
          <mxGeometry y="90" width="180" height="30" as="geometry" />
        </mxCell>
        <mxCell id="J7pDQWudLYsrYL_kbWkB-10" value="" style="shape=partialRectangle;connectable=0;fillColor=none;top=0;left=0;bottom=0;right=0;editable=1;overflow=hidden;" vertex="1" parent="J7pDQWudLYsrYL_kbWkB-9">
          <mxGeometry width="30" height="30" as="geometry">
            <mxRectangle width="30" height="30" as="alternateBounds" />
          </mxGeometry>
        </mxCell>
        <mxCell id="J7pDQWudLYsrYL_kbWkB-11" value="Stock" style="shape=partialRectangle;connectable=0;fillColor=none;top=0;left=0;bottom=0;right=0;align=left;spacingLeft=6;overflow=hidden;" vertex="1" parent="J7pDQWudLYsrYL_kbWkB-9">
          <mxGeometry x="30" width="150" height="30" as="geometry">
            <mxRectangle width="150" height="30" as="alternateBounds" />
          </mxGeometry>
        </mxCell>
        <mxCell id="J7pDQWudLYsrYL_kbWkB-12" value="" style="shape=tableRow;horizontal=0;startSize=0;swimlaneHead=0;swimlaneBody=0;fillColor=none;collapsible=0;dropTarget=0;points=[[0,0.5],[1,0.5]];portConstraint=eastwest;top=0;left=0;right=0;bottom=0;" vertex="1" parent="J7pDQWudLYsrYL_kbWkB-2">
          <mxGeometry y="120" width="180" height="30" as="geometry" />
        </mxCell>
        <mxCell id="J7pDQWudLYsrYL_kbWkB-13" value="FK" style="shape=partialRectangle;connectable=0;fillColor=none;top=0;left=0;bottom=0;right=0;editable=1;overflow=hidden;fontStyle=1" vertex="1" parent="J7pDQWudLYsrYL_kbWkB-12">
          <mxGeometry width="30" height="30" as="geometry">
            <mxRectangle width="30" height="30" as="alternateBounds" />
          </mxGeometry>
        </mxCell>
        <mxCell id="J7pDQWudLYsrYL_kbWkB-14" value="CategoryId" style="shape=partialRectangle;connectable=0;fillColor=none;top=0;left=0;bottom=0;right=0;align=left;spacingLeft=6;overflow=hidden;fontStyle=1" vertex="1" parent="J7pDQWudLYsrYL_kbWkB-12">
          <mxGeometry x="30" width="150" height="30" as="geometry">
            <mxRectangle width="150" height="30" as="alternateBounds" />
          </mxGeometry>
        </mxCell>
        <mxCell id="J7pDQWudLYsrYL_kbWkB-15" value="" style="shape=tableRow;horizontal=0;startSize=0;swimlaneHead=0;swimlaneBody=0;fillColor=none;collapsible=0;dropTarget=0;points=[[0,0.5],[1,0.5]];portConstraint=eastwest;top=0;left=0;right=0;bottom=0;" vertex="1" parent="J7pDQWudLYsrYL_kbWkB-2">
          <mxGeometry y="150" width="180" height="30" as="geometry" />
        </mxCell>
        <mxCell id="J7pDQWudLYsrYL_kbWkB-16" value="FK" style="shape=partialRectangle;connectable=0;fillColor=none;top=0;left=0;bottom=0;right=0;editable=1;overflow=hidden;fontStyle=1" vertex="1" parent="J7pDQWudLYsrYL_kbWkB-15">
          <mxGeometry width="30" height="30" as="geometry">
            <mxRectangle width="30" height="30" as="alternateBounds" />
          </mxGeometry>
        </mxCell>
        <mxCell id="J7pDQWudLYsrYL_kbWkB-17" value="BrandId" style="shape=partialRectangle;connectable=0;fillColor=none;top=0;left=0;bottom=0;right=0;align=left;spacingLeft=6;overflow=hidden;fontStyle=1" vertex="1" parent="J7pDQWudLYsrYL_kbWkB-15">
          <mxGeometry x="30" width="150" height="30" as="geometry">
            <mxRectangle width="150" height="30" as="alternateBounds" />
          </mxGeometry>
        </mxCell>
        <mxCell id="J7pDQWudLYsrYL_kbWkB-18" value="" style="shape=tableRow;horizontal=0;startSize=0;swimlaneHead=0;swimlaneBody=0;fillColor=none;collapsible=0;dropTarget=0;points=[[0,0.5],[1,0.5]];portConstraint=eastwest;top=0;left=0;right=0;bottom=0;" vertex="1" parent="J7pDQWudLYsrYL_kbWkB-2">
          <mxGeometry y="180" width="180" height="30" as="geometry" />
        </mxCell>
        <mxCell id="J7pDQWudLYsrYL_kbWkB-19" value="" style="shape=partialRectangle;connectable=0;fillColor=none;top=0;left=0;bottom=0;right=0;editable=1;overflow=hidden;fontStyle=1" vertex="1" parent="J7pDQWudLYsrYL_kbWkB-18">
          <mxGeometry width="30" height="30" as="geometry">
            <mxRectangle width="30" height="30" as="alternateBounds" />
          </mxGeometry>
        </mxCell>
        <mxCell id="J7pDQWudLYsrYL_kbWkB-20" value="Description" style="shape=partialRectangle;connectable=0;fillColor=none;top=0;left=0;bottom=0;right=0;align=left;spacingLeft=6;overflow=hidden;fontStyle=0" vertex="1" parent="J7pDQWudLYsrYL_kbWkB-18">
          <mxGeometry x="30" width="150" height="30" as="geometry">
            <mxRectangle width="150" height="30" as="alternateBounds" />
          </mxGeometry>
        </mxCell>
        <mxCell id="J7pDQWudLYsrYL_kbWkB-21" value="Categories" style="shape=table;startSize=30;container=1;collapsible=1;childLayout=tableLayout;fixedRows=1;rowLines=0;fontStyle=1;align=center;resizeLast=1;fillColor=#B9E0A5;" vertex="1" parent="1">
          <mxGeometry x="1343" y="930" width="177" height="130" as="geometry" />
        </mxCell>
        <mxCell id="J7pDQWudLYsrYL_kbWkB-22" value="" style="shape=tableRow;horizontal=0;startSize=0;swimlaneHead=0;swimlaneBody=0;fillColor=none;collapsible=0;dropTarget=0;points=[[0,0.5],[1,0.5]];portConstraint=eastwest;top=0;left=0;right=0;bottom=1;" vertex="1" parent="J7pDQWudLYsrYL_kbWkB-21">
          <mxGeometry y="30" width="177" height="30" as="geometry" />
        </mxCell>
        <mxCell id="J7pDQWudLYsrYL_kbWkB-23" value="PK" style="shape=partialRectangle;connectable=0;fillColor=none;top=0;left=0;bottom=0;right=0;fontStyle=1;overflow=hidden;" vertex="1" parent="J7pDQWudLYsrYL_kbWkB-22">
          <mxGeometry width="30" height="30" as="geometry">
            <mxRectangle width="30" height="30" as="alternateBounds" />
          </mxGeometry>
        </mxCell>
        <mxCell id="J7pDQWudLYsrYL_kbWkB-24" value="ID" style="shape=partialRectangle;connectable=0;fillColor=none;top=0;left=0;bottom=0;right=0;align=left;spacingLeft=6;fontStyle=5;overflow=hidden;" vertex="1" parent="J7pDQWudLYsrYL_kbWkB-22">
          <mxGeometry x="30" width="147" height="30" as="geometry">
            <mxRectangle width="147" height="30" as="alternateBounds" />
          </mxGeometry>
        </mxCell>
        <mxCell id="J7pDQWudLYsrYL_kbWkB-25" value="" style="shape=tableRow;horizontal=0;startSize=0;swimlaneHead=0;swimlaneBody=0;fillColor=none;collapsible=0;dropTarget=0;points=[[0,0.5],[1,0.5]];portConstraint=eastwest;top=0;left=0;right=0;bottom=0;" vertex="1" parent="J7pDQWudLYsrYL_kbWkB-21">
          <mxGeometry y="60" width="177" height="30" as="geometry" />
        </mxCell>
        <mxCell id="J7pDQWudLYsrYL_kbWkB-26" value="" style="shape=partialRectangle;connectable=0;fillColor=none;top=0;left=0;bottom=0;right=0;editable=1;overflow=hidden;" vertex="1" parent="J7pDQWudLYsrYL_kbWkB-25">
          <mxGeometry width="30" height="30" as="geometry">
            <mxRectangle width="30" height="30" as="alternateBounds" />
          </mxGeometry>
        </mxCell>
        <mxCell id="J7pDQWudLYsrYL_kbWkB-27" value="Name" style="shape=partialRectangle;connectable=0;fillColor=none;top=0;left=0;bottom=0;right=0;align=left;spacingLeft=6;overflow=hidden;" vertex="1" parent="J7pDQWudLYsrYL_kbWkB-25">
          <mxGeometry x="30" width="147" height="30" as="geometry">
            <mxRectangle width="147" height="30" as="alternateBounds" />
          </mxGeometry>
        </mxCell>
        <mxCell id="J7pDQWudLYsrYL_kbWkB-28" value="" style="shape=tableRow;horizontal=0;startSize=0;swimlaneHead=0;swimlaneBody=0;fillColor=none;collapsible=0;dropTarget=0;points=[[0,0.5],[1,0.5]];portConstraint=eastwest;top=0;left=0;right=0;bottom=0;" vertex="1" parent="J7pDQWudLYsrYL_kbWkB-21">
          <mxGeometry y="90" width="177" height="40" as="geometry" />
        </mxCell>
        <mxCell id="J7pDQWudLYsrYL_kbWkB-29" value="" style="shape=partialRectangle;connectable=0;fillColor=none;top=0;left=0;bottom=0;right=0;editable=1;overflow=hidden;" vertex="1" parent="J7pDQWudLYsrYL_kbWkB-28">
          <mxGeometry width="30" height="40" as="geometry">
            <mxRectangle width="30" height="40" as="alternateBounds" />
          </mxGeometry>
        </mxCell>
        <mxCell id="J7pDQWudLYsrYL_kbWkB-30" value="Type" style="shape=partialRectangle;connectable=0;fillColor=none;top=0;left=0;bottom=0;right=0;align=left;spacingLeft=6;overflow=hidden;" vertex="1" parent="J7pDQWudLYsrYL_kbWkB-28">
          <mxGeometry x="30" width="147" height="40" as="geometry">
            <mxRectangle width="147" height="40" as="alternateBounds" />
          </mxGeometry>
        </mxCell>
        <mxCell id="J7pDQWudLYsrYL_kbWkB-31" value="Customers" style="shape=table;startSize=30;container=1;collapsible=1;childLayout=tableLayout;fixedRows=1;rowLines=0;fontStyle=1;align=center;resizeLast=1;fillColor=#B39847;" vertex="1" parent="1">
          <mxGeometry x="1890" y="1400" width="180" height="150" as="geometry" />
        </mxCell>
        <mxCell id="J7pDQWudLYsrYL_kbWkB-32" value="" style="shape=tableRow;horizontal=0;startSize=0;swimlaneHead=0;swimlaneBody=0;fillColor=none;collapsible=0;dropTarget=0;points=[[0,0.5],[1,0.5]];portConstraint=eastwest;top=0;left=0;right=0;bottom=1;" vertex="1" parent="J7pDQWudLYsrYL_kbWkB-31">
          <mxGeometry y="30" width="180" height="30" as="geometry" />
        </mxCell>
        <mxCell id="J7pDQWudLYsrYL_kbWkB-33" value="PK" style="shape=partialRectangle;connectable=0;fillColor=none;top=0;left=0;bottom=0;right=0;fontStyle=1;overflow=hidden;" vertex="1" parent="J7pDQWudLYsrYL_kbWkB-32">
          <mxGeometry width="30" height="30" as="geometry">
            <mxRectangle width="30" height="30" as="alternateBounds" />
          </mxGeometry>
        </mxCell>
        <mxCell id="J7pDQWudLYsrYL_kbWkB-34" value="ID" style="shape=partialRectangle;connectable=0;fillColor=none;top=0;left=0;bottom=0;right=0;align=left;spacingLeft=6;fontStyle=5;overflow=hidden;" vertex="1" parent="J7pDQWudLYsrYL_kbWkB-32">
          <mxGeometry x="30" width="150" height="30" as="geometry">
            <mxRectangle width="150" height="30" as="alternateBounds" />
          </mxGeometry>
        </mxCell>
        <mxCell id="J7pDQWudLYsrYL_kbWkB-35" value="" style="shape=tableRow;horizontal=0;startSize=0;swimlaneHead=0;swimlaneBody=0;fillColor=none;collapsible=0;dropTarget=0;points=[[0,0.5],[1,0.5]];portConstraint=eastwest;top=0;left=0;right=0;bottom=0;" vertex="1" parent="J7pDQWudLYsrYL_kbWkB-31">
          <mxGeometry y="60" width="180" height="30" as="geometry" />
        </mxCell>
        <mxCell id="J7pDQWudLYsrYL_kbWkB-36" value="" style="shape=partialRectangle;connectable=0;fillColor=none;top=0;left=0;bottom=0;right=0;editable=1;overflow=hidden;" vertex="1" parent="J7pDQWudLYsrYL_kbWkB-35">
          <mxGeometry width="30" height="30" as="geometry">
            <mxRectangle width="30" height="30" as="alternateBounds" />
          </mxGeometry>
        </mxCell>
        <mxCell id="J7pDQWudLYsrYL_kbWkB-37" value="Name" style="shape=partialRectangle;connectable=0;fillColor=none;top=0;left=0;bottom=0;right=0;align=left;spacingLeft=6;overflow=hidden;" vertex="1" parent="J7pDQWudLYsrYL_kbWkB-35">
          <mxGeometry x="30" width="150" height="30" as="geometry">
            <mxRectangle width="150" height="30" as="alternateBounds" />
          </mxGeometry>
        </mxCell>
        <mxCell id="J7pDQWudLYsrYL_kbWkB-38" value="" style="shape=tableRow;horizontal=0;startSize=0;swimlaneHead=0;swimlaneBody=0;fillColor=none;collapsible=0;dropTarget=0;points=[[0,0.5],[1,0.5]];portConstraint=eastwest;top=0;left=0;right=0;bottom=0;" vertex="1" parent="J7pDQWudLYsrYL_kbWkB-31">
          <mxGeometry y="90" width="180" height="30" as="geometry" />
        </mxCell>
        <mxCell id="J7pDQWudLYsrYL_kbWkB-39" value="" style="shape=partialRectangle;connectable=0;fillColor=none;top=0;left=0;bottom=0;right=0;editable=1;overflow=hidden;" vertex="1" parent="J7pDQWudLYsrYL_kbWkB-38">
          <mxGeometry width="30" height="30" as="geometry">
            <mxRectangle width="30" height="30" as="alternateBounds" />
          </mxGeometry>
        </mxCell>
        <mxCell id="J7pDQWudLYsrYL_kbWkB-40" value="Surname" style="shape=partialRectangle;connectable=0;fillColor=none;top=0;left=0;bottom=0;right=0;align=left;spacingLeft=6;overflow=hidden;" vertex="1" parent="J7pDQWudLYsrYL_kbWkB-38">
          <mxGeometry x="30" width="150" height="30" as="geometry">
            <mxRectangle width="150" height="30" as="alternateBounds" />
          </mxGeometry>
        </mxCell>
        <mxCell id="J7pDQWudLYsrYL_kbWkB-41" value="" style="shape=tableRow;horizontal=0;startSize=0;swimlaneHead=0;swimlaneBody=0;fillColor=none;collapsible=0;dropTarget=0;points=[[0,0.5],[1,0.5]];portConstraint=eastwest;top=0;left=0;right=0;bottom=0;" vertex="1" parent="J7pDQWudLYsrYL_kbWkB-31">
          <mxGeometry y="120" width="180" height="20" as="geometry" />
        </mxCell>
        <mxCell id="J7pDQWudLYsrYL_kbWkB-42" value="" style="shape=partialRectangle;connectable=0;fillColor=none;top=0;left=0;bottom=0;right=0;editable=1;overflow=hidden;" vertex="1" parent="J7pDQWudLYsrYL_kbWkB-41">
          <mxGeometry width="30" height="20" as="geometry">
            <mxRectangle width="30" height="20" as="alternateBounds" />
          </mxGeometry>
        </mxCell>
        <mxCell id="J7pDQWudLYsrYL_kbWkB-43" value="Email" style="shape=partialRectangle;connectable=0;fillColor=none;top=0;left=0;bottom=0;right=0;align=left;spacingLeft=6;overflow=hidden;" vertex="1" parent="J7pDQWudLYsrYL_kbWkB-41">
          <mxGeometry x="30" width="150" height="20" as="geometry">
            <mxRectangle width="150" height="20" as="alternateBounds" />
          </mxGeometry>
        </mxCell>
        <mxCell id="J7pDQWudLYsrYL_kbWkB-44" value="Addresses" style="shape=table;startSize=30;container=1;collapsible=1;childLayout=tableLayout;fixedRows=1;rowLines=0;fontStyle=1;align=center;resizeLast=1;fillColor=#E0B58C;" vertex="1" parent="1">
          <mxGeometry x="1900" y="1580" width="180" height="150" as="geometry" />
        </mxCell>
        <mxCell id="J7pDQWudLYsrYL_kbWkB-45" value="" style="shape=tableRow;horizontal=0;startSize=0;swimlaneHead=0;swimlaneBody=0;fillColor=none;collapsible=0;dropTarget=0;points=[[0,0.5],[1,0.5]];portConstraint=eastwest;top=0;left=0;right=0;bottom=1;" vertex="1" parent="J7pDQWudLYsrYL_kbWkB-44">
          <mxGeometry y="30" width="180" height="30" as="geometry" />
        </mxCell>
        <mxCell id="J7pDQWudLYsrYL_kbWkB-46" value="PK" style="shape=partialRectangle;connectable=0;fillColor=none;top=0;left=0;bottom=0;right=0;fontStyle=1;overflow=hidden;" vertex="1" parent="J7pDQWudLYsrYL_kbWkB-45">
          <mxGeometry width="30" height="30" as="geometry">
            <mxRectangle width="30" height="30" as="alternateBounds" />
          </mxGeometry>
        </mxCell>
        <mxCell id="J7pDQWudLYsrYL_kbWkB-47" value="ID" style="shape=partialRectangle;connectable=0;fillColor=none;top=0;left=0;bottom=0;right=0;align=left;spacingLeft=6;fontStyle=5;overflow=hidden;" vertex="1" parent="J7pDQWudLYsrYL_kbWkB-45">
          <mxGeometry x="30" width="150" height="30" as="geometry">
            <mxRectangle width="150" height="30" as="alternateBounds" />
          </mxGeometry>
        </mxCell>
        <mxCell id="J7pDQWudLYsrYL_kbWkB-48" value="" style="shape=tableRow;horizontal=0;startSize=0;swimlaneHead=0;swimlaneBody=0;fillColor=none;collapsible=0;dropTarget=0;points=[[0,0.5],[1,0.5]];portConstraint=eastwest;top=0;left=0;right=0;bottom=0;" vertex="1" parent="J7pDQWudLYsrYL_kbWkB-44">
          <mxGeometry y="60" width="180" height="30" as="geometry" />
        </mxCell>
        <mxCell id="J7pDQWudLYsrYL_kbWkB-49" value="" style="shape=partialRectangle;connectable=0;fillColor=none;top=0;left=0;bottom=0;right=0;editable=1;overflow=hidden;" vertex="1" parent="J7pDQWudLYsrYL_kbWkB-48">
          <mxGeometry width="30" height="30" as="geometry">
            <mxRectangle width="30" height="30" as="alternateBounds" />
          </mxGeometry>
        </mxCell>
        <mxCell id="J7pDQWudLYsrYL_kbWkB-50" value="Title" style="shape=partialRectangle;connectable=0;fillColor=none;top=0;left=0;bottom=0;right=0;align=left;spacingLeft=6;overflow=hidden;" vertex="1" parent="J7pDQWudLYsrYL_kbWkB-48">
          <mxGeometry x="30" width="150" height="30" as="geometry">
            <mxRectangle width="150" height="30" as="alternateBounds" />
          </mxGeometry>
        </mxCell>
        <mxCell id="J7pDQWudLYsrYL_kbWkB-51" value="" style="shape=tableRow;horizontal=0;startSize=0;swimlaneHead=0;swimlaneBody=0;fillColor=none;collapsible=0;dropTarget=0;points=[[0,0.5],[1,0.5]];portConstraint=eastwest;top=0;left=0;right=0;bottom=0;" vertex="1" parent="J7pDQWudLYsrYL_kbWkB-44">
          <mxGeometry y="90" width="180" height="30" as="geometry" />
        </mxCell>
        <mxCell id="J7pDQWudLYsrYL_kbWkB-52" value="FK" style="shape=partialRectangle;connectable=0;fillColor=none;top=0;left=0;bottom=0;right=0;editable=1;overflow=hidden;fontStyle=1" vertex="1" parent="J7pDQWudLYsrYL_kbWkB-51">
          <mxGeometry width="30" height="30" as="geometry">
            <mxRectangle width="30" height="30" as="alternateBounds" />
          </mxGeometry>
        </mxCell>
        <mxCell id="J7pDQWudLYsrYL_kbWkB-53" value="CountryId" style="shape=partialRectangle;connectable=0;fillColor=none;top=0;left=0;bottom=0;right=0;align=left;spacingLeft=6;overflow=hidden;fontStyle=1" vertex="1" parent="J7pDQWudLYsrYL_kbWkB-51">
          <mxGeometry x="30" width="150" height="30" as="geometry">
            <mxRectangle width="150" height="30" as="alternateBounds" />
          </mxGeometry>
        </mxCell>
        <mxCell id="J7pDQWudLYsrYL_kbWkB-54" value="" style="shape=tableRow;horizontal=0;startSize=0;swimlaneHead=0;swimlaneBody=0;fillColor=none;collapsible=0;dropTarget=0;points=[[0,0.5],[1,0.5]];portConstraint=eastwest;top=0;left=0;right=0;bottom=0;" vertex="1" parent="J7pDQWudLYsrYL_kbWkB-44">
          <mxGeometry y="120" width="180" height="30" as="geometry" />
        </mxCell>
        <mxCell id="J7pDQWudLYsrYL_kbWkB-55" value="FK" style="shape=partialRectangle;connectable=0;fillColor=none;top=0;left=0;bottom=0;right=0;editable=1;overflow=hidden;fontStyle=1" vertex="1" parent="J7pDQWudLYsrYL_kbWkB-54">
          <mxGeometry width="30" height="30" as="geometry">
            <mxRectangle width="30" height="30" as="alternateBounds" />
          </mxGeometry>
        </mxCell>
        <mxCell id="J7pDQWudLYsrYL_kbWkB-56" value="CustomerId" style="shape=partialRectangle;connectable=0;fillColor=none;top=0;left=0;bottom=0;right=0;align=left;spacingLeft=6;overflow=hidden;fontStyle=1" vertex="1" parent="J7pDQWudLYsrYL_kbWkB-54">
          <mxGeometry x="30" width="150" height="30" as="geometry">
            <mxRectangle width="150" height="30" as="alternateBounds" />
          </mxGeometry>
        </mxCell>
        <mxCell id="J7pDQWudLYsrYL_kbWkB-57" value="ProductSellers" style="shape=table;startSize=30;container=1;collapsible=1;childLayout=tableLayout;fixedRows=1;rowLines=0;fontStyle=1;align=center;resizeLast=1;fillColor=#66FFD6;" vertex="1" parent="1">
          <mxGeometry x="1600" y="700" width="180" height="90" as="geometry" />
        </mxCell>
        <mxCell id="J7pDQWudLYsrYL_kbWkB-58" value="" style="shape=tableRow;horizontal=0;startSize=0;swimlaneHead=0;swimlaneBody=0;fillColor=none;collapsible=0;dropTarget=0;points=[[0,0.5],[1,0.5]];portConstraint=eastwest;top=0;left=0;right=0;bottom=0;" vertex="1" parent="J7pDQWudLYsrYL_kbWkB-57">
          <mxGeometry y="30" width="180" height="30" as="geometry" />
        </mxCell>
        <mxCell id="J7pDQWudLYsrYL_kbWkB-59" value="PK,FK1" style="shape=partialRectangle;connectable=0;fillColor=none;top=0;left=0;bottom=0;right=0;fontStyle=1;overflow=hidden;" vertex="1" parent="J7pDQWudLYsrYL_kbWkB-58">
          <mxGeometry width="55" height="30" as="geometry">
            <mxRectangle width="55" height="30" as="alternateBounds" />
          </mxGeometry>
        </mxCell>
        <mxCell id="J7pDQWudLYsrYL_kbWkB-60" value="ProductId" style="shape=partialRectangle;connectable=0;fillColor=none;top=0;left=0;bottom=0;right=0;align=left;spacingLeft=6;fontStyle=5;overflow=hidden;" vertex="1" parent="J7pDQWudLYsrYL_kbWkB-58">
          <mxGeometry x="55" width="125" height="30" as="geometry">
            <mxRectangle width="125" height="30" as="alternateBounds" />
          </mxGeometry>
        </mxCell>
        <mxCell id="J7pDQWudLYsrYL_kbWkB-61" value="" style="shape=tableRow;horizontal=0;startSize=0;swimlaneHead=0;swimlaneBody=0;fillColor=none;collapsible=0;dropTarget=0;points=[[0,0.5],[1,0.5]];portConstraint=eastwest;top=0;left=0;right=0;bottom=1;" vertex="1" parent="J7pDQWudLYsrYL_kbWkB-57">
          <mxGeometry y="60" width="180" height="30" as="geometry" />
        </mxCell>
        <mxCell id="J7pDQWudLYsrYL_kbWkB-62" value="PK,FK2" style="shape=partialRectangle;connectable=0;fillColor=none;top=0;left=0;bottom=0;right=0;fontStyle=1;overflow=hidden;" vertex="1" parent="J7pDQWudLYsrYL_kbWkB-61">
          <mxGeometry width="55" height="30" as="geometry">
            <mxRectangle width="55" height="30" as="alternateBounds" />
          </mxGeometry>
        </mxCell>
        <mxCell id="J7pDQWudLYsrYL_kbWkB-63" value="SellerId" style="shape=partialRectangle;connectable=0;fillColor=none;top=0;left=0;bottom=0;right=0;align=left;spacingLeft=6;fontStyle=5;overflow=hidden;" vertex="1" parent="J7pDQWudLYsrYL_kbWkB-61">
          <mxGeometry x="55" width="125" height="30" as="geometry">
            <mxRectangle width="125" height="30" as="alternateBounds" />
          </mxGeometry>
        </mxCell>
        <mxCell id="J7pDQWudLYsrYL_kbWkB-64" value="Brands" style="shape=table;startSize=30;container=1;collapsible=1;childLayout=tableLayout;fixedRows=1;rowLines=0;fontStyle=1;align=center;resizeLast=1;fillColor=#EA6B66;" vertex="1" parent="1">
          <mxGeometry x="1343" y="1090" width="180" height="120" as="geometry" />
        </mxCell>
        <mxCell id="J7pDQWudLYsrYL_kbWkB-65" value="" style="shape=tableRow;horizontal=0;startSize=0;swimlaneHead=0;swimlaneBody=0;fillColor=none;collapsible=0;dropTarget=0;points=[[0,0.5],[1,0.5]];portConstraint=eastwest;top=0;left=0;right=0;bottom=1;" vertex="1" parent="J7pDQWudLYsrYL_kbWkB-64">
          <mxGeometry y="30" width="180" height="30" as="geometry" />
        </mxCell>
        <mxCell id="J7pDQWudLYsrYL_kbWkB-66" value="PK" style="shape=partialRectangle;connectable=0;fillColor=none;top=0;left=0;bottom=0;right=0;fontStyle=1;overflow=hidden;" vertex="1" parent="J7pDQWudLYsrYL_kbWkB-65">
          <mxGeometry width="30" height="30" as="geometry">
            <mxRectangle width="30" height="30" as="alternateBounds" />
          </mxGeometry>
        </mxCell>
        <mxCell id="J7pDQWudLYsrYL_kbWkB-67" value="BrandId" style="shape=partialRectangle;connectable=0;fillColor=none;top=0;left=0;bottom=0;right=0;align=left;spacingLeft=6;fontStyle=5;overflow=hidden;" vertex="1" parent="J7pDQWudLYsrYL_kbWkB-65">
          <mxGeometry x="30" width="150" height="30" as="geometry">
            <mxRectangle width="150" height="30" as="alternateBounds" />
          </mxGeometry>
        </mxCell>
        <mxCell id="J7pDQWudLYsrYL_kbWkB-68" value="" style="shape=tableRow;horizontal=0;startSize=0;swimlaneHead=0;swimlaneBody=0;fillColor=none;collapsible=0;dropTarget=0;points=[[0,0.5],[1,0.5]];portConstraint=eastwest;top=0;left=0;right=0;bottom=0;" vertex="1" parent="J7pDQWudLYsrYL_kbWkB-64">
          <mxGeometry y="60" width="180" height="30" as="geometry" />
        </mxCell>
        <mxCell id="J7pDQWudLYsrYL_kbWkB-69" value="" style="shape=partialRectangle;connectable=0;fillColor=none;top=0;left=0;bottom=0;right=0;editable=1;overflow=hidden;" vertex="1" parent="J7pDQWudLYsrYL_kbWkB-68">
          <mxGeometry width="30" height="30" as="geometry">
            <mxRectangle width="30" height="30" as="alternateBounds" />
          </mxGeometry>
        </mxCell>
        <mxCell id="J7pDQWudLYsrYL_kbWkB-70" value="Name" style="shape=partialRectangle;connectable=0;fillColor=none;top=0;left=0;bottom=0;right=0;align=left;spacingLeft=6;overflow=hidden;" vertex="1" parent="J7pDQWudLYsrYL_kbWkB-68">
          <mxGeometry x="30" width="150" height="30" as="geometry">
            <mxRectangle width="150" height="30" as="alternateBounds" />
          </mxGeometry>
        </mxCell>
        <mxCell id="J7pDQWudLYsrYL_kbWkB-71" value="" style="shape=tableRow;horizontal=0;startSize=0;swimlaneHead=0;swimlaneBody=0;fillColor=none;collapsible=0;dropTarget=0;points=[[0,0.5],[1,0.5]];portConstraint=eastwest;top=0;left=0;right=0;bottom=0;" vertex="1" parent="J7pDQWudLYsrYL_kbWkB-64">
          <mxGeometry y="90" width="180" height="30" as="geometry" />
        </mxCell>
        <mxCell id="J7pDQWudLYsrYL_kbWkB-72" value="" style="shape=partialRectangle;connectable=0;fillColor=none;top=0;left=0;bottom=0;right=0;editable=1;overflow=hidden;" vertex="1" parent="J7pDQWudLYsrYL_kbWkB-71">
          <mxGeometry width="30" height="30" as="geometry">
            <mxRectangle width="30" height="30" as="alternateBounds" />
          </mxGeometry>
        </mxCell>
        <mxCell id="J7pDQWudLYsrYL_kbWkB-73" value="Logo" style="shape=partialRectangle;connectable=0;fillColor=none;top=0;left=0;bottom=0;right=0;align=left;spacingLeft=6;overflow=hidden;" vertex="1" parent="J7pDQWudLYsrYL_kbWkB-71">
          <mxGeometry x="30" width="150" height="30" as="geometry">
            <mxRectangle width="150" height="30" as="alternateBounds" />
          </mxGeometry>
        </mxCell>
        <mxCell id="J7pDQWudLYsrYL_kbWkB-74" value="" style="edgeStyle=entityRelationEdgeStyle;fontSize=12;html=1;endArrow=ERoneToMany;rounded=0;entryX=-0.006;entryY=0.733;entryDx=0;entryDy=0;entryPerimeter=0;" edge="1" parent="1" source="J7pDQWudLYsrYL_kbWkB-22" target="J7pDQWudLYsrYL_kbWkB-12">
          <mxGeometry width="100" height="100" relative="1" as="geometry">
            <mxPoint x="1476.5" y="940" as="sourcePoint" />
            <mxPoint x="1576.5" y="840" as="targetPoint" />
          </mxGeometry>
        </mxCell>
        <mxCell id="J7pDQWudLYsrYL_kbWkB-75" value="Campaigns" style="shape=table;startSize=30;container=1;collapsible=1;childLayout=tableLayout;fixedRows=1;rowLines=0;fontStyle=1;align=center;resizeLast=1;fillColor=#FF99FF;" vertex="1" parent="1">
          <mxGeometry x="2170" y="570" width="180" height="170" as="geometry" />
        </mxCell>
        <mxCell id="J7pDQWudLYsrYL_kbWkB-76" value="" style="shape=tableRow;horizontal=0;startSize=0;swimlaneHead=0;swimlaneBody=0;fillColor=none;collapsible=0;dropTarget=0;points=[[0,0.5],[1,0.5]];portConstraint=eastwest;top=0;left=0;right=0;bottom=1;" vertex="1" parent="J7pDQWudLYsrYL_kbWkB-75">
          <mxGeometry y="30" width="180" height="30" as="geometry" />
        </mxCell>
        <mxCell id="J7pDQWudLYsrYL_kbWkB-77" value="PK" style="shape=partialRectangle;connectable=0;fillColor=none;top=0;left=0;bottom=0;right=0;fontStyle=1;overflow=hidden;" vertex="1" parent="J7pDQWudLYsrYL_kbWkB-76">
          <mxGeometry width="30" height="30" as="geometry">
            <mxRectangle width="30" height="30" as="alternateBounds" />
          </mxGeometry>
        </mxCell>
        <mxCell id="J7pDQWudLYsrYL_kbWkB-78" value="Id" style="shape=partialRectangle;connectable=0;fillColor=none;top=0;left=0;bottom=0;right=0;align=left;spacingLeft=6;fontStyle=5;overflow=hidden;" vertex="1" parent="J7pDQWudLYsrYL_kbWkB-76">
          <mxGeometry x="30" width="150" height="30" as="geometry">
            <mxRectangle width="150" height="30" as="alternateBounds" />
          </mxGeometry>
        </mxCell>
        <mxCell id="J7pDQWudLYsrYL_kbWkB-79" value="" style="shape=tableRow;horizontal=0;startSize=0;swimlaneHead=0;swimlaneBody=0;fillColor=none;collapsible=0;dropTarget=0;points=[[0,0.5],[1,0.5]];portConstraint=eastwest;top=0;left=0;right=0;bottom=0;" vertex="1" parent="J7pDQWudLYsrYL_kbWkB-75">
          <mxGeometry y="60" width="180" height="30" as="geometry" />
        </mxCell>
        <mxCell id="J7pDQWudLYsrYL_kbWkB-80" value="" style="shape=partialRectangle;connectable=0;fillColor=none;top=0;left=0;bottom=0;right=0;editable=1;overflow=hidden;" vertex="1" parent="J7pDQWudLYsrYL_kbWkB-79">
          <mxGeometry width="30" height="30" as="geometry">
            <mxRectangle width="30" height="30" as="alternateBounds" />
          </mxGeometry>
        </mxCell>
        <mxCell id="J7pDQWudLYsrYL_kbWkB-81" value="DiscountRate" style="shape=partialRectangle;connectable=0;fillColor=none;top=0;left=0;bottom=0;right=0;align=left;spacingLeft=6;overflow=hidden;" vertex="1" parent="J7pDQWudLYsrYL_kbWkB-79">
          <mxGeometry x="30" width="150" height="30" as="geometry">
            <mxRectangle width="150" height="30" as="alternateBounds" />
          </mxGeometry>
        </mxCell>
        <mxCell id="J7pDQWudLYsrYL_kbWkB-82" value="" style="shape=tableRow;horizontal=0;startSize=0;swimlaneHead=0;swimlaneBody=0;fillColor=none;collapsible=0;dropTarget=0;points=[[0,0.5],[1,0.5]];portConstraint=eastwest;top=0;left=0;right=0;bottom=0;" vertex="1" parent="J7pDQWudLYsrYL_kbWkB-75">
          <mxGeometry y="90" width="180" height="20" as="geometry" />
        </mxCell>
        <mxCell id="J7pDQWudLYsrYL_kbWkB-83" value="" style="shape=partialRectangle;connectable=0;fillColor=none;top=0;left=0;bottom=0;right=0;editable=1;overflow=hidden;" vertex="1" parent="J7pDQWudLYsrYL_kbWkB-82">
          <mxGeometry width="30" height="20" as="geometry">
            <mxRectangle width="30" height="20" as="alternateBounds" />
          </mxGeometry>
        </mxCell>
        <mxCell id="J7pDQWudLYsrYL_kbWkB-84" value="StartingDate" style="shape=partialRectangle;connectable=0;fillColor=none;top=0;left=0;bottom=0;right=0;align=left;spacingLeft=6;overflow=hidden;" vertex="1" parent="J7pDQWudLYsrYL_kbWkB-82">
          <mxGeometry x="30" width="150" height="20" as="geometry">
            <mxRectangle width="150" height="20" as="alternateBounds" />
          </mxGeometry>
        </mxCell>
        <mxCell id="J7pDQWudLYsrYL_kbWkB-85" value="" style="shape=tableRow;horizontal=0;startSize=0;swimlaneHead=0;swimlaneBody=0;fillColor=none;collapsible=0;dropTarget=0;points=[[0,0.5],[1,0.5]];portConstraint=eastwest;top=0;left=0;right=0;bottom=0;" vertex="1" parent="J7pDQWudLYsrYL_kbWkB-75">
          <mxGeometry y="110" width="180" height="30" as="geometry" />
        </mxCell>
        <mxCell id="J7pDQWudLYsrYL_kbWkB-86" value="" style="shape=partialRectangle;connectable=0;fillColor=none;top=0;left=0;bottom=0;right=0;editable=1;overflow=hidden;" vertex="1" parent="J7pDQWudLYsrYL_kbWkB-85">
          <mxGeometry width="30" height="30" as="geometry">
            <mxRectangle width="30" height="30" as="alternateBounds" />
          </mxGeometry>
        </mxCell>
        <mxCell id="J7pDQWudLYsrYL_kbWkB-87" value="EndingDate" style="shape=partialRectangle;connectable=0;fillColor=none;top=0;left=0;bottom=0;right=0;align=left;spacingLeft=6;overflow=hidden;" vertex="1" parent="J7pDQWudLYsrYL_kbWkB-85">
          <mxGeometry x="30" width="150" height="30" as="geometry">
            <mxRectangle width="150" height="30" as="alternateBounds" />
          </mxGeometry>
        </mxCell>
        <mxCell id="J7pDQWudLYsrYL_kbWkB-88" value="" style="shape=tableRow;horizontal=0;startSize=0;swimlaneHead=0;swimlaneBody=0;fillColor=none;collapsible=0;dropTarget=0;points=[[0,0.5],[1,0.5]];portConstraint=eastwest;top=0;left=0;right=0;bottom=0;" vertex="1" parent="J7pDQWudLYsrYL_kbWkB-75">
          <mxGeometry y="140" width="180" height="30" as="geometry" />
        </mxCell>
        <mxCell id="J7pDQWudLYsrYL_kbWkB-89" value="" style="shape=partialRectangle;connectable=0;fillColor=none;top=0;left=0;bottom=0;right=0;editable=1;overflow=hidden;" vertex="1" parent="J7pDQWudLYsrYL_kbWkB-88">
          <mxGeometry width="30" height="30" as="geometry">
            <mxRectangle width="30" height="30" as="alternateBounds" />
          </mxGeometry>
        </mxCell>
        <mxCell id="J7pDQWudLYsrYL_kbWkB-90" value="CampaignTitle" style="shape=partialRectangle;connectable=0;fillColor=none;top=0;left=0;bottom=0;right=0;align=left;spacingLeft=6;overflow=hidden;" vertex="1" parent="J7pDQWudLYsrYL_kbWkB-88">
          <mxGeometry x="30" width="150" height="30" as="geometry">
            <mxRectangle width="150" height="30" as="alternateBounds" />
          </mxGeometry>
        </mxCell>
        <mxCell id="J7pDQWudLYsrYL_kbWkB-91" value="" style="edgeStyle=entityRelationEdgeStyle;fontSize=12;html=1;endArrow=ERoneToMany;rounded=0;entryX=0;entryY=0.5;entryDx=0;entryDy=0;" edge="1" parent="1" source="J7pDQWudLYsrYL_kbWkB-65" target="J7pDQWudLYsrYL_kbWkB-15">
          <mxGeometry width="100" height="100" relative="1" as="geometry">
            <mxPoint x="1271.5" y="1085" as="sourcePoint" />
            <mxPoint x="1830.5" y="1080" as="targetPoint" />
          </mxGeometry>
        </mxCell>
        <mxCell id="J7pDQWudLYsrYL_kbWkB-92" value="ProductPrices" style="shape=table;startSize=30;container=1;collapsible=1;childLayout=tableLayout;fixedRows=1;rowLines=0;fontStyle=1;align=center;resizeLast=1;fillColor=#F19C99;" vertex="1" parent="1">
          <mxGeometry x="1880" y="810" width="180" height="170" as="geometry" />
        </mxCell>
        <mxCell id="J7pDQWudLYsrYL_kbWkB-93" value="" style="shape=tableRow;horizontal=0;startSize=0;swimlaneHead=0;swimlaneBody=0;fillColor=none;collapsible=0;dropTarget=0;points=[[0,0.5],[1,0.5]];portConstraint=eastwest;top=0;left=0;right=0;bottom=1;" vertex="1" parent="J7pDQWudLYsrYL_kbWkB-92">
          <mxGeometry y="30" width="180" height="30" as="geometry" />
        </mxCell>
        <mxCell id="J7pDQWudLYsrYL_kbWkB-94" value="PK" style="shape=partialRectangle;connectable=0;fillColor=none;top=0;left=0;bottom=0;right=0;fontStyle=1;overflow=hidden;" vertex="1" parent="J7pDQWudLYsrYL_kbWkB-93">
          <mxGeometry width="30" height="30" as="geometry">
            <mxRectangle width="30" height="30" as="alternateBounds" />
          </mxGeometry>
        </mxCell>
        <mxCell id="J7pDQWudLYsrYL_kbWkB-95" value="ID" style="shape=partialRectangle;connectable=0;fillColor=none;top=0;left=0;bottom=0;right=0;align=left;spacingLeft=6;fontStyle=5;overflow=hidden;" vertex="1" parent="J7pDQWudLYsrYL_kbWkB-93">
          <mxGeometry x="30" width="150" height="30" as="geometry">
            <mxRectangle width="150" height="30" as="alternateBounds" />
          </mxGeometry>
        </mxCell>
        <mxCell id="J7pDQWudLYsrYL_kbWkB-96" value="" style="shape=tableRow;horizontal=0;startSize=0;swimlaneHead=0;swimlaneBody=0;fillColor=none;collapsible=0;dropTarget=0;points=[[0,0.5],[1,0.5]];portConstraint=eastwest;top=0;left=0;right=0;bottom=0;" vertex="1" parent="J7pDQWudLYsrYL_kbWkB-92">
          <mxGeometry y="60" width="180" height="30" as="geometry" />
        </mxCell>
        <mxCell id="J7pDQWudLYsrYL_kbWkB-97" value="" style="shape=partialRectangle;connectable=0;fillColor=none;top=0;left=0;bottom=0;right=0;editable=1;overflow=hidden;" vertex="1" parent="J7pDQWudLYsrYL_kbWkB-96">
          <mxGeometry width="30" height="30" as="geometry">
            <mxRectangle width="30" height="30" as="alternateBounds" />
          </mxGeometry>
        </mxCell>
        <mxCell id="J7pDQWudLYsrYL_kbWkB-98" value="PurchasePrice" style="shape=partialRectangle;connectable=0;fillColor=none;top=0;left=0;bottom=0;right=0;align=left;spacingLeft=6;overflow=hidden;" vertex="1" parent="J7pDQWudLYsrYL_kbWkB-96">
          <mxGeometry x="30" width="150" height="30" as="geometry">
            <mxRectangle width="150" height="30" as="alternateBounds" />
          </mxGeometry>
        </mxCell>
        <mxCell id="J7pDQWudLYsrYL_kbWkB-99" value="" style="shape=tableRow;horizontal=0;startSize=0;swimlaneHead=0;swimlaneBody=0;fillColor=none;collapsible=0;dropTarget=0;points=[[0,0.5],[1,0.5]];portConstraint=eastwest;top=0;left=0;right=0;bottom=0;" vertex="1" parent="J7pDQWudLYsrYL_kbWkB-92">
          <mxGeometry y="90" width="180" height="20" as="geometry" />
        </mxCell>
        <mxCell id="J7pDQWudLYsrYL_kbWkB-100" value="" style="shape=partialRectangle;connectable=0;fillColor=none;top=0;left=0;bottom=0;right=0;editable=1;overflow=hidden;" vertex="1" parent="J7pDQWudLYsrYL_kbWkB-99">
          <mxGeometry width="30" height="20" as="geometry">
            <mxRectangle width="30" height="20" as="alternateBounds" />
          </mxGeometry>
        </mxCell>
        <mxCell id="J7pDQWudLYsrYL_kbWkB-101" value="SalePrice " style="shape=partialRectangle;connectable=0;fillColor=none;top=0;left=0;bottom=0;right=0;align=left;spacingLeft=6;overflow=hidden;" vertex="1" parent="J7pDQWudLYsrYL_kbWkB-99">
          <mxGeometry x="30" width="150" height="20" as="geometry">
            <mxRectangle width="150" height="20" as="alternateBounds" />
          </mxGeometry>
        </mxCell>
        <mxCell id="J7pDQWudLYsrYL_kbWkB-102" value="" style="shape=tableRow;horizontal=0;startSize=0;swimlaneHead=0;swimlaneBody=0;fillColor=none;collapsible=0;dropTarget=0;points=[[0,0.5],[1,0.5]];portConstraint=eastwest;top=0;left=0;right=0;bottom=0;" vertex="1" parent="J7pDQWudLYsrYL_kbWkB-92">
          <mxGeometry y="110" width="180" height="30" as="geometry" />
        </mxCell>
        <mxCell id="J7pDQWudLYsrYL_kbWkB-103" value="" style="shape=partialRectangle;connectable=0;fillColor=none;top=0;left=0;bottom=0;right=0;editable=1;overflow=hidden;" vertex="1" parent="J7pDQWudLYsrYL_kbWkB-102">
          <mxGeometry width="30" height="30" as="geometry">
            <mxRectangle width="30" height="30" as="alternateBounds" />
          </mxGeometry>
        </mxCell>
        <mxCell id="J7pDQWudLYsrYL_kbWkB-104" value="ProfitRate" style="shape=partialRectangle;connectable=0;fillColor=none;top=0;left=0;bottom=0;right=0;align=left;spacingLeft=6;overflow=hidden;" vertex="1" parent="J7pDQWudLYsrYL_kbWkB-102">
          <mxGeometry x="30" width="150" height="30" as="geometry">
            <mxRectangle width="150" height="30" as="alternateBounds" />
          </mxGeometry>
        </mxCell>
        <mxCell id="J7pDQWudLYsrYL_kbWkB-105" value="" style="shape=tableRow;horizontal=0;startSize=0;swimlaneHead=0;swimlaneBody=0;fillColor=none;collapsible=0;dropTarget=0;points=[[0,0.5],[1,0.5]];portConstraint=eastwest;top=0;left=0;right=0;bottom=0;" vertex="1" parent="J7pDQWudLYsrYL_kbWkB-92">
          <mxGeometry y="140" width="180" height="30" as="geometry" />
        </mxCell>
        <mxCell id="J7pDQWudLYsrYL_kbWkB-106" value="FK" style="shape=partialRectangle;connectable=0;fillColor=none;top=0;left=0;bottom=0;right=0;editable=1;overflow=hidden;fontStyle=1" vertex="1" parent="J7pDQWudLYsrYL_kbWkB-105">
          <mxGeometry width="30" height="30" as="geometry">
            <mxRectangle width="30" height="30" as="alternateBounds" />
          </mxGeometry>
        </mxCell>
        <mxCell id="J7pDQWudLYsrYL_kbWkB-107" value="ProductId" style="shape=partialRectangle;connectable=0;fillColor=none;top=0;left=0;bottom=0;right=0;align=left;spacingLeft=6;overflow=hidden;fontStyle=1" vertex="1" parent="J7pDQWudLYsrYL_kbWkB-105">
          <mxGeometry x="30" width="150" height="30" as="geometry">
            <mxRectangle width="150" height="30" as="alternateBounds" />
          </mxGeometry>
        </mxCell>
        <mxCell id="J7pDQWudLYsrYL_kbWkB-108" value="CampainProduct" style="shape=table;startSize=30;container=1;collapsible=1;childLayout=tableLayout;fixedRows=1;rowLines=0;fontStyle=1;align=center;resizeLast=1;fillColor=#99CCFF;" vertex="1" parent="1">
          <mxGeometry x="1890" y="570" width="180" height="90" as="geometry">
            <mxRectangle x="1181.5" y="150" width="140" height="30" as="alternateBounds" />
          </mxGeometry>
        </mxCell>
        <mxCell id="J7pDQWudLYsrYL_kbWkB-109" value="" style="shape=tableRow;horizontal=0;startSize=0;swimlaneHead=0;swimlaneBody=0;fillColor=none;collapsible=0;dropTarget=0;points=[[0,0.5],[1,0.5]];portConstraint=eastwest;top=0;left=0;right=0;bottom=0;" vertex="1" parent="J7pDQWudLYsrYL_kbWkB-108">
          <mxGeometry y="30" width="180" height="30" as="geometry" />
        </mxCell>
        <mxCell id="J7pDQWudLYsrYL_kbWkB-110" value="PK,FK1" style="shape=partialRectangle;connectable=0;fillColor=none;top=0;left=0;bottom=0;right=0;fontStyle=1;overflow=hidden;" vertex="1" parent="J7pDQWudLYsrYL_kbWkB-109">
          <mxGeometry width="60" height="30" as="geometry">
            <mxRectangle width="60" height="30" as="alternateBounds" />
          </mxGeometry>
        </mxCell>
        <mxCell id="J7pDQWudLYsrYL_kbWkB-111" value="CampainId" style="shape=partialRectangle;connectable=0;fillColor=none;top=0;left=0;bottom=0;right=0;align=left;spacingLeft=6;fontStyle=5;overflow=hidden;" vertex="1" parent="J7pDQWudLYsrYL_kbWkB-109">
          <mxGeometry x="60" width="120" height="30" as="geometry">
            <mxRectangle width="120" height="30" as="alternateBounds" />
          </mxGeometry>
        </mxCell>
        <mxCell id="J7pDQWudLYsrYL_kbWkB-112" value="" style="shape=tableRow;horizontal=0;startSize=0;swimlaneHead=0;swimlaneBody=0;fillColor=none;collapsible=0;dropTarget=0;points=[[0,0.5],[1,0.5]];portConstraint=eastwest;top=0;left=0;right=0;bottom=1;" vertex="1" parent="J7pDQWudLYsrYL_kbWkB-108">
          <mxGeometry y="60" width="180" height="30" as="geometry" />
        </mxCell>
        <mxCell id="J7pDQWudLYsrYL_kbWkB-113" value="PK,FK2" style="shape=partialRectangle;connectable=0;fillColor=none;top=0;left=0;bottom=0;right=0;fontStyle=1;overflow=hidden;" vertex="1" parent="J7pDQWudLYsrYL_kbWkB-112">
          <mxGeometry width="60" height="30" as="geometry">
            <mxRectangle width="60" height="30" as="alternateBounds" />
          </mxGeometry>
        </mxCell>
        <mxCell id="J7pDQWudLYsrYL_kbWkB-114" value="ProductId" style="shape=partialRectangle;connectable=0;fillColor=none;top=0;left=0;bottom=0;right=0;align=left;spacingLeft=6;fontStyle=5;overflow=hidden;" vertex="1" parent="J7pDQWudLYsrYL_kbWkB-112">
          <mxGeometry x="60" width="120" height="30" as="geometry">
            <mxRectangle width="120" height="30" as="alternateBounds" />
          </mxGeometry>
        </mxCell>
        <mxCell id="J7pDQWudLYsrYL_kbWkB-115" value="" style="edgeStyle=entityRelationEdgeStyle;fontSize=12;html=1;endArrow=ERoneToMany;rounded=0;exitX=1;exitY=0.5;exitDx=0;exitDy=0;entryX=0;entryY=0.5;entryDx=0;entryDy=0;" edge="1" parent="1" source="J7pDQWudLYsrYL_kbWkB-3" target="J7pDQWudLYsrYL_kbWkB-112">
          <mxGeometry width="100" height="100" relative="1" as="geometry">
            <mxPoint x="1711.5" y="1120" as="sourcePoint" />
            <mxPoint x="1811.5" y="1020" as="targetPoint" />
          </mxGeometry>
        </mxCell>
        <mxCell id="J7pDQWudLYsrYL_kbWkB-116" value="" style="edgeStyle=entityRelationEdgeStyle;fontSize=12;html=1;endArrow=ERoneToMany;rounded=0;exitX=0;exitY=0.5;exitDx=0;exitDy=0;" edge="1" parent="1" source="J7pDQWudLYsrYL_kbWkB-76" target="J7pDQWudLYsrYL_kbWkB-109">
          <mxGeometry width="100" height="100" relative="1" as="geometry">
            <mxPoint x="1711.5" y="1140" as="sourcePoint" />
            <mxPoint x="1811.5" y="1020" as="targetPoint" />
          </mxGeometry>
        </mxCell>
        <mxCell id="J7pDQWudLYsrYL_kbWkB-117" value="Cargoes" style="shape=table;startSize=30;container=1;collapsible=1;childLayout=tableLayout;fixedRows=1;rowLines=0;fontStyle=1;align=center;resizeLast=1;fillColor=#FCFFA1;" vertex="1" parent="1">
          <mxGeometry x="1900" y="1250" width="180" height="140" as="geometry" />
        </mxCell>
        <mxCell id="J7pDQWudLYsrYL_kbWkB-118" value="" style="shape=tableRow;horizontal=0;startSize=0;swimlaneHead=0;swimlaneBody=0;fillColor=none;collapsible=0;dropTarget=0;points=[[0,0.5],[1,0.5]];portConstraint=eastwest;top=0;left=0;right=0;bottom=1;" vertex="1" parent="J7pDQWudLYsrYL_kbWkB-117">
          <mxGeometry y="30" width="180" height="30" as="geometry" />
        </mxCell>
        <mxCell id="J7pDQWudLYsrYL_kbWkB-119" value="PK" style="shape=partialRectangle;connectable=0;fillColor=none;top=0;left=0;bottom=0;right=0;fontStyle=1;overflow=hidden;" vertex="1" parent="J7pDQWudLYsrYL_kbWkB-118">
          <mxGeometry width="30" height="30" as="geometry">
            <mxRectangle width="30" height="30" as="alternateBounds" />
          </mxGeometry>
        </mxCell>
        <mxCell id="J7pDQWudLYsrYL_kbWkB-120" value="Id" style="shape=partialRectangle;connectable=0;fillColor=none;top=0;left=0;bottom=0;right=0;align=left;spacingLeft=6;fontStyle=5;overflow=hidden;" vertex="1" parent="J7pDQWudLYsrYL_kbWkB-118">
          <mxGeometry x="30" width="150" height="30" as="geometry">
            <mxRectangle width="150" height="30" as="alternateBounds" />
          </mxGeometry>
        </mxCell>
        <mxCell id="J7pDQWudLYsrYL_kbWkB-121" value="" style="shape=tableRow;horizontal=0;startSize=0;swimlaneHead=0;swimlaneBody=0;fillColor=none;collapsible=0;dropTarget=0;points=[[0,0.5],[1,0.5]];portConstraint=eastwest;top=0;left=0;right=0;bottom=0;" vertex="1" parent="J7pDQWudLYsrYL_kbWkB-117">
          <mxGeometry y="60" width="180" height="30" as="geometry" />
        </mxCell>
        <mxCell id="J7pDQWudLYsrYL_kbWkB-122" value="" style="shape=partialRectangle;connectable=0;fillColor=none;top=0;left=0;bottom=0;right=0;editable=1;overflow=hidden;" vertex="1" parent="J7pDQWudLYsrYL_kbWkB-121">
          <mxGeometry width="30" height="30" as="geometry">
            <mxRectangle width="30" height="30" as="alternateBounds" />
          </mxGeometry>
        </mxCell>
        <mxCell id="J7pDQWudLYsrYL_kbWkB-123" value="Name" style="shape=partialRectangle;connectable=0;fillColor=none;top=0;left=0;bottom=0;right=0;align=left;spacingLeft=6;overflow=hidden;" vertex="1" parent="J7pDQWudLYsrYL_kbWkB-121">
          <mxGeometry x="30" width="150" height="30" as="geometry">
            <mxRectangle width="150" height="30" as="alternateBounds" />
          </mxGeometry>
        </mxCell>
        <mxCell id="J7pDQWudLYsrYL_kbWkB-124" value="" style="shape=tableRow;horizontal=0;startSize=0;swimlaneHead=0;swimlaneBody=0;fillColor=none;collapsible=0;dropTarget=0;points=[[0,0.5],[1,0.5]];portConstraint=eastwest;top=0;left=0;right=0;bottom=0;" vertex="1" parent="J7pDQWudLYsrYL_kbWkB-117">
          <mxGeometry y="90" width="180" height="30" as="geometry" />
        </mxCell>
        <mxCell id="J7pDQWudLYsrYL_kbWkB-125" value="" style="shape=partialRectangle;connectable=0;fillColor=none;top=0;left=0;bottom=0;right=0;editable=1;overflow=hidden;" vertex="1" parent="J7pDQWudLYsrYL_kbWkB-124">
          <mxGeometry width="30" height="30" as="geometry">
            <mxRectangle width="30" height="30" as="alternateBounds" />
          </mxGeometry>
        </mxCell>
        <mxCell id="J7pDQWudLYsrYL_kbWkB-126" value="Explanation" style="shape=partialRectangle;connectable=0;fillColor=none;top=0;left=0;bottom=0;right=0;align=left;spacingLeft=6;overflow=hidden;" vertex="1" parent="J7pDQWudLYsrYL_kbWkB-124">
          <mxGeometry x="30" width="150" height="30" as="geometry">
            <mxRectangle width="150" height="30" as="alternateBounds" />
          </mxGeometry>
        </mxCell>
        <mxCell id="J7pDQWudLYsrYL_kbWkB-127" value="" style="shape=tableRow;horizontal=0;startSize=0;swimlaneHead=0;swimlaneBody=0;fillColor=none;collapsible=0;dropTarget=0;points=[[0,0.5],[1,0.5]];portConstraint=eastwest;top=0;left=0;right=0;bottom=0;" vertex="1" parent="J7pDQWudLYsrYL_kbWkB-117">
          <mxGeometry y="120" width="180" height="20" as="geometry" />
        </mxCell>
        <mxCell id="J7pDQWudLYsrYL_kbWkB-128" value="" style="shape=partialRectangle;connectable=0;fillColor=none;top=0;left=0;bottom=0;right=0;editable=1;overflow=hidden;" vertex="1" parent="J7pDQWudLYsrYL_kbWkB-127">
          <mxGeometry width="30" height="20" as="geometry">
            <mxRectangle width="30" height="20" as="alternateBounds" />
          </mxGeometry>
        </mxCell>
        <mxCell id="J7pDQWudLYsrYL_kbWkB-129" value="" style="shape=partialRectangle;connectable=0;fillColor=none;top=0;left=0;bottom=0;right=0;align=left;spacingLeft=6;overflow=hidden;" vertex="1" parent="J7pDQWudLYsrYL_kbWkB-127">
          <mxGeometry x="30" width="150" height="20" as="geometry">
            <mxRectangle width="150" height="20" as="alternateBounds" />
          </mxGeometry>
        </mxCell>
        <mxCell id="J7pDQWudLYsrYL_kbWkB-130" value="ProductCargoes" style="shape=table;startSize=30;container=1;collapsible=1;childLayout=tableLayout;fixedRows=1;rowLines=0;fontStyle=1;align=center;resizeLast=1;fillColor=#9AC7BF;" vertex="1" parent="1">
          <mxGeometry x="1600" y="1060" width="180" height="90" as="geometry" />
        </mxCell>
        <mxCell id="J7pDQWudLYsrYL_kbWkB-131" value="" style="shape=tableRow;horizontal=0;startSize=0;swimlaneHead=0;swimlaneBody=0;fillColor=none;collapsible=0;dropTarget=0;points=[[0,0.5],[1,0.5]];portConstraint=eastwest;top=0;left=0;right=0;bottom=0;" vertex="1" parent="J7pDQWudLYsrYL_kbWkB-130">
          <mxGeometry y="30" width="180" height="30" as="geometry" />
        </mxCell>
        <mxCell id="J7pDQWudLYsrYL_kbWkB-132" value="PK,FK1" style="shape=partialRectangle;connectable=0;fillColor=none;top=0;left=0;bottom=0;right=0;fontStyle=1;overflow=hidden;" vertex="1" parent="J7pDQWudLYsrYL_kbWkB-131">
          <mxGeometry width="60" height="30" as="geometry">
            <mxRectangle width="60" height="30" as="alternateBounds" />
          </mxGeometry>
        </mxCell>
        <mxCell id="J7pDQWudLYsrYL_kbWkB-133" value="ProductId" style="shape=partialRectangle;connectable=0;fillColor=none;top=0;left=0;bottom=0;right=0;align=left;spacingLeft=6;fontStyle=5;overflow=hidden;" vertex="1" parent="J7pDQWudLYsrYL_kbWkB-131">
          <mxGeometry x="60" width="120" height="30" as="geometry">
            <mxRectangle width="120" height="30" as="alternateBounds" />
          </mxGeometry>
        </mxCell>
        <mxCell id="J7pDQWudLYsrYL_kbWkB-134" value="" style="shape=tableRow;horizontal=0;startSize=0;swimlaneHead=0;swimlaneBody=0;fillColor=none;collapsible=0;dropTarget=0;points=[[0,0.5],[1,0.5]];portConstraint=eastwest;top=0;left=0;right=0;bottom=1;" vertex="1" parent="J7pDQWudLYsrYL_kbWkB-130">
          <mxGeometry y="60" width="180" height="30" as="geometry" />
        </mxCell>
        <mxCell id="J7pDQWudLYsrYL_kbWkB-135" value="PK,FK2" style="shape=partialRectangle;connectable=0;fillColor=none;top=0;left=0;bottom=0;right=0;fontStyle=1;overflow=hidden;" vertex="1" parent="J7pDQWudLYsrYL_kbWkB-134">
          <mxGeometry width="60" height="30" as="geometry">
            <mxRectangle width="60" height="30" as="alternateBounds" />
          </mxGeometry>
        </mxCell>
        <mxCell id="J7pDQWudLYsrYL_kbWkB-136" value="CargoId" style="shape=partialRectangle;connectable=0;fillColor=none;top=0;left=0;bottom=0;right=0;align=left;spacingLeft=6;fontStyle=5;overflow=hidden;" vertex="1" parent="J7pDQWudLYsrYL_kbWkB-134">
          <mxGeometry x="60" width="120" height="30" as="geometry">
            <mxRectangle width="120" height="30" as="alternateBounds" />
          </mxGeometry>
        </mxCell>
        <mxCell id="J7pDQWudLYsrYL_kbWkB-137" value="Sellers" style="shape=table;startSize=30;container=1;collapsible=1;childLayout=tableLayout;fixedRows=1;rowLines=0;fontStyle=1;align=center;resizeLast=1;fillColor=#E1D5E7;" vertex="1" parent="1">
          <mxGeometry x="1110" y="600" width="180" height="260" as="geometry" />
        </mxCell>
        <mxCell id="J7pDQWudLYsrYL_kbWkB-138" value="" style="shape=tableRow;horizontal=0;startSize=0;swimlaneHead=0;swimlaneBody=0;fillColor=none;collapsible=0;dropTarget=0;points=[[0,0.5],[1,0.5]];portConstraint=eastwest;top=0;left=0;right=0;bottom=1;" vertex="1" parent="J7pDQWudLYsrYL_kbWkB-137">
          <mxGeometry y="30" width="180" height="20" as="geometry" />
        </mxCell>
        <mxCell id="J7pDQWudLYsrYL_kbWkB-139" value="PK" style="shape=partialRectangle;connectable=0;fillColor=none;top=0;left=0;bottom=0;right=0;fontStyle=1;overflow=hidden;" vertex="1" parent="J7pDQWudLYsrYL_kbWkB-138">
          <mxGeometry width="30" height="20" as="geometry">
            <mxRectangle width="30" height="20" as="alternateBounds" />
          </mxGeometry>
        </mxCell>
        <mxCell id="J7pDQWudLYsrYL_kbWkB-140" value="UniqueID" style="shape=partialRectangle;connectable=0;fillColor=none;top=0;left=0;bottom=0;right=0;align=left;spacingLeft=6;fontStyle=5;overflow=hidden;" vertex="1" parent="J7pDQWudLYsrYL_kbWkB-138">
          <mxGeometry x="30" width="150" height="20" as="geometry">
            <mxRectangle width="150" height="20" as="alternateBounds" />
          </mxGeometry>
        </mxCell>
        <mxCell id="J7pDQWudLYsrYL_kbWkB-141" value="" style="shape=tableRow;horizontal=0;startSize=0;swimlaneHead=0;swimlaneBody=0;fillColor=none;collapsible=0;dropTarget=0;points=[[0,0.5],[1,0.5]];portConstraint=eastwest;top=0;left=0;right=0;bottom=0;" vertex="1" parent="J7pDQWudLYsrYL_kbWkB-137">
          <mxGeometry y="50" width="180" height="30" as="geometry" />
        </mxCell>
        <mxCell id="J7pDQWudLYsrYL_kbWkB-142" value="" style="shape=partialRectangle;connectable=0;fillColor=none;top=0;left=0;bottom=0;right=0;editable=1;overflow=hidden;" vertex="1" parent="J7pDQWudLYsrYL_kbWkB-141">
          <mxGeometry width="30" height="30" as="geometry">
            <mxRectangle width="30" height="30" as="alternateBounds" />
          </mxGeometry>
        </mxCell>
        <mxCell id="J7pDQWudLYsrYL_kbWkB-143" value="Name" style="shape=partialRectangle;connectable=0;fillColor=none;top=0;left=0;bottom=0;right=0;align=left;spacingLeft=6;overflow=hidden;" vertex="1" parent="J7pDQWudLYsrYL_kbWkB-141">
          <mxGeometry x="30" width="150" height="30" as="geometry">
            <mxRectangle width="150" height="30" as="alternateBounds" />
          </mxGeometry>
        </mxCell>
        <mxCell id="J7pDQWudLYsrYL_kbWkB-144" value="" style="shape=tableRow;horizontal=0;startSize=0;swimlaneHead=0;swimlaneBody=0;fillColor=none;collapsible=0;dropTarget=0;points=[[0,0.5],[1,0.5]];portConstraint=eastwest;top=0;left=0;right=0;bottom=0;" vertex="1" parent="J7pDQWudLYsrYL_kbWkB-137">
          <mxGeometry y="80" width="180" height="30" as="geometry" />
        </mxCell>
        <mxCell id="J7pDQWudLYsrYL_kbWkB-145" value="" style="shape=partialRectangle;connectable=0;fillColor=none;top=0;left=0;bottom=0;right=0;editable=1;overflow=hidden;" vertex="1" parent="J7pDQWudLYsrYL_kbWkB-144">
          <mxGeometry width="30" height="30" as="geometry">
            <mxRectangle width="30" height="30" as="alternateBounds" />
          </mxGeometry>
        </mxCell>
        <mxCell id="J7pDQWudLYsrYL_kbWkB-146" value="NumberOfProducts" style="shape=partialRectangle;connectable=0;fillColor=none;top=0;left=0;bottom=0;right=0;align=left;spacingLeft=6;overflow=hidden;" vertex="1" parent="J7pDQWudLYsrYL_kbWkB-144">
          <mxGeometry x="30" width="150" height="30" as="geometry">
            <mxRectangle width="150" height="30" as="alternateBounds" />
          </mxGeometry>
        </mxCell>
        <mxCell id="J7pDQWudLYsrYL_kbWkB-147" value="" style="shape=tableRow;horizontal=0;startSize=0;swimlaneHead=0;swimlaneBody=0;fillColor=none;collapsible=0;dropTarget=0;points=[[0,0.5],[1,0.5]];portConstraint=eastwest;top=0;left=0;right=0;bottom=0;" vertex="1" parent="J7pDQWudLYsrYL_kbWkB-137">
          <mxGeometry y="110" width="180" height="30" as="geometry" />
        </mxCell>
        <mxCell id="J7pDQWudLYsrYL_kbWkB-148" value="FK" style="shape=partialRectangle;connectable=0;fillColor=none;top=0;left=0;bottom=0;right=0;editable=1;overflow=hidden;fontStyle=1" vertex="1" parent="J7pDQWudLYsrYL_kbWkB-147">
          <mxGeometry width="30" height="30" as="geometry">
            <mxRectangle width="30" height="30" as="alternateBounds" />
          </mxGeometry>
        </mxCell>
        <mxCell id="J7pDQWudLYsrYL_kbWkB-149" value="TitleId" style="shape=partialRectangle;connectable=0;fillColor=none;top=0;left=0;bottom=0;right=0;align=left;spacingLeft=6;overflow=hidden;fontStyle=1" vertex="1" parent="J7pDQWudLYsrYL_kbWkB-147">
          <mxGeometry x="30" width="150" height="30" as="geometry">
            <mxRectangle width="150" height="30" as="alternateBounds" />
          </mxGeometry>
        </mxCell>
        <mxCell id="J7pDQWudLYsrYL_kbWkB-150" value="" style="shape=tableRow;horizontal=0;startSize=0;swimlaneHead=0;swimlaneBody=0;fillColor=none;collapsible=0;dropTarget=0;points=[[0,0.5],[1,0.5]];portConstraint=eastwest;top=0;left=0;right=0;bottom=0;" vertex="1" parent="J7pDQWudLYsrYL_kbWkB-137">
          <mxGeometry y="140" width="180" height="30" as="geometry" />
        </mxCell>
        <mxCell id="J7pDQWudLYsrYL_kbWkB-151" value="" style="shape=partialRectangle;connectable=0;fillColor=none;top=0;left=0;bottom=0;right=0;editable=1;overflow=hidden;" vertex="1" parent="J7pDQWudLYsrYL_kbWkB-150">
          <mxGeometry width="30" height="30" as="geometry">
            <mxRectangle width="30" height="30" as="alternateBounds" />
          </mxGeometry>
        </mxCell>
        <mxCell id="J7pDQWudLYsrYL_kbWkB-152" value="Email " style="shape=partialRectangle;connectable=0;fillColor=none;top=0;left=0;bottom=0;right=0;align=left;spacingLeft=6;overflow=hidden;" vertex="1" parent="J7pDQWudLYsrYL_kbWkB-150">
          <mxGeometry x="30" width="150" height="30" as="geometry">
            <mxRectangle width="150" height="30" as="alternateBounds" />
          </mxGeometry>
        </mxCell>
        <mxCell id="J7pDQWudLYsrYL_kbWkB-153" value="" style="shape=tableRow;horizontal=0;startSize=0;swimlaneHead=0;swimlaneBody=0;fillColor=none;collapsible=0;dropTarget=0;points=[[0,0.5],[1,0.5]];portConstraint=eastwest;top=0;left=0;right=0;bottom=0;" vertex="1" parent="J7pDQWudLYsrYL_kbWkB-137">
          <mxGeometry y="170" width="180" height="30" as="geometry" />
        </mxCell>
        <mxCell id="J7pDQWudLYsrYL_kbWkB-154" value="" style="shape=partialRectangle;connectable=0;fillColor=none;top=0;left=0;bottom=0;right=0;editable=1;overflow=hidden;" vertex="1" parent="J7pDQWudLYsrYL_kbWkB-153">
          <mxGeometry width="30" height="30" as="geometry">
            <mxRectangle width="30" height="30" as="alternateBounds" />
          </mxGeometry>
        </mxCell>
        <mxCell id="J7pDQWudLYsrYL_kbWkB-155" value="Adress" style="shape=partialRectangle;connectable=0;fillColor=none;top=0;left=0;bottom=0;right=0;align=left;spacingLeft=6;overflow=hidden;" vertex="1" parent="J7pDQWudLYsrYL_kbWkB-153">
          <mxGeometry x="30" width="150" height="30" as="geometry">
            <mxRectangle width="150" height="30" as="alternateBounds" />
          </mxGeometry>
        </mxCell>
        <mxCell id="J7pDQWudLYsrYL_kbWkB-156" value="" style="shape=tableRow;horizontal=0;startSize=0;swimlaneHead=0;swimlaneBody=0;fillColor=none;collapsible=0;dropTarget=0;points=[[0,0.5],[1,0.5]];portConstraint=eastwest;top=0;left=0;right=0;bottom=0;" vertex="1" parent="J7pDQWudLYsrYL_kbWkB-137">
          <mxGeometry y="200" width="180" height="30" as="geometry" />
        </mxCell>
        <mxCell id="J7pDQWudLYsrYL_kbWkB-157" value="" style="shape=partialRectangle;connectable=0;fillColor=none;top=0;left=0;bottom=0;right=0;editable=1;overflow=hidden;" vertex="1" parent="J7pDQWudLYsrYL_kbWkB-156">
          <mxGeometry width="30" height="30" as="geometry">
            <mxRectangle width="30" height="30" as="alternateBounds" />
          </mxGeometry>
        </mxCell>
        <mxCell id="J7pDQWudLYsrYL_kbWkB-158" value="TaxNumber" style="shape=partialRectangle;connectable=0;fillColor=none;top=0;left=0;bottom=0;right=0;align=left;spacingLeft=6;overflow=hidden;" vertex="1" parent="J7pDQWudLYsrYL_kbWkB-156">
          <mxGeometry x="30" width="150" height="30" as="geometry">
            <mxRectangle width="150" height="30" as="alternateBounds" />
          </mxGeometry>
        </mxCell>
        <mxCell id="J7pDQWudLYsrYL_kbWkB-159" value="" style="shape=tableRow;horizontal=0;startSize=0;swimlaneHead=0;swimlaneBody=0;fillColor=none;collapsible=0;dropTarget=0;points=[[0,0.5],[1,0.5]];portConstraint=eastwest;top=0;left=0;right=0;bottom=0;" vertex="1" parent="J7pDQWudLYsrYL_kbWkB-137">
          <mxGeometry y="230" width="180" height="30" as="geometry" />
        </mxCell>
        <mxCell id="J7pDQWudLYsrYL_kbWkB-160" value="" style="shape=partialRectangle;connectable=0;fillColor=none;top=0;left=0;bottom=0;right=0;editable=1;overflow=hidden;" vertex="1" parent="J7pDQWudLYsrYL_kbWkB-159">
          <mxGeometry width="30" height="30" as="geometry">
            <mxRectangle width="30" height="30" as="alternateBounds" />
          </mxGeometry>
        </mxCell>
        <mxCell id="J7pDQWudLYsrYL_kbWkB-161" value="PhoneNumber" style="shape=partialRectangle;connectable=0;fillColor=none;top=0;left=0;bottom=0;right=0;align=left;spacingLeft=6;overflow=hidden;" vertex="1" parent="J7pDQWudLYsrYL_kbWkB-159">
          <mxGeometry x="30" width="150" height="30" as="geometry">
            <mxRectangle width="150" height="30" as="alternateBounds" />
          </mxGeometry>
        </mxCell>
        <mxCell id="J7pDQWudLYsrYL_kbWkB-162" value="Orders" style="shape=table;startSize=30;container=1;collapsible=1;childLayout=tableLayout;fixedRows=1;rowLines=0;fontStyle=1;align=center;resizeLast=1;fillColor=#B0FFEF;" vertex="1" parent="1">
          <mxGeometry x="2180" y="1320" width="180" height="300" as="geometry" />
        </mxCell>
        <mxCell id="J7pDQWudLYsrYL_kbWkB-163" value="" style="shape=tableRow;horizontal=0;startSize=0;swimlaneHead=0;swimlaneBody=0;fillColor=none;collapsible=0;dropTarget=0;points=[[0,0.5],[1,0.5]];portConstraint=eastwest;top=0;left=0;right=0;bottom=1;" vertex="1" parent="J7pDQWudLYsrYL_kbWkB-162">
          <mxGeometry y="30" width="180" height="30" as="geometry" />
        </mxCell>
        <mxCell id="J7pDQWudLYsrYL_kbWkB-164" value="PK" style="shape=partialRectangle;connectable=0;fillColor=none;top=0;left=0;bottom=0;right=0;fontStyle=1;overflow=hidden;" vertex="1" parent="J7pDQWudLYsrYL_kbWkB-163">
          <mxGeometry width="28.5" height="30" as="geometry">
            <mxRectangle width="28.5" height="30" as="alternateBounds" />
          </mxGeometry>
        </mxCell>
        <mxCell id="J7pDQWudLYsrYL_kbWkB-165" value="UniqueID" style="shape=partialRectangle;connectable=0;fillColor=none;top=0;left=0;bottom=0;right=0;align=left;spacingLeft=6;fontStyle=5;overflow=hidden;" vertex="1" parent="J7pDQWudLYsrYL_kbWkB-163">
          <mxGeometry x="28.5" width="151.5" height="30" as="geometry">
            <mxRectangle width="151.5" height="30" as="alternateBounds" />
          </mxGeometry>
        </mxCell>
        <mxCell id="J7pDQWudLYsrYL_kbWkB-166" value="" style="shape=tableRow;horizontal=0;startSize=0;swimlaneHead=0;swimlaneBody=0;fillColor=none;collapsible=0;dropTarget=0;points=[[0,0.5],[1,0.5]];portConstraint=eastwest;top=0;left=0;right=0;bottom=0;" vertex="1" parent="J7pDQWudLYsrYL_kbWkB-162">
          <mxGeometry y="60" width="180" height="30" as="geometry" />
        </mxCell>
        <mxCell id="J7pDQWudLYsrYL_kbWkB-167" value="" style="shape=partialRectangle;connectable=0;fillColor=none;top=0;left=0;bottom=0;right=0;editable=1;overflow=hidden;" vertex="1" parent="J7pDQWudLYsrYL_kbWkB-166">
          <mxGeometry width="28.5" height="30" as="geometry">
            <mxRectangle width="28.5" height="30" as="alternateBounds" />
          </mxGeometry>
        </mxCell>
        <mxCell id="J7pDQWudLYsrYL_kbWkB-168" value="PaymentOptions" style="shape=partialRectangle;connectable=0;fillColor=none;top=0;left=0;bottom=0;right=0;align=left;spacingLeft=6;overflow=hidden;" vertex="1" parent="J7pDQWudLYsrYL_kbWkB-166">
          <mxGeometry x="28.5" width="151.5" height="30" as="geometry">
            <mxRectangle width="151.5" height="30" as="alternateBounds" />
          </mxGeometry>
        </mxCell>
        <mxCell id="J7pDQWudLYsrYL_kbWkB-169" value="" style="shape=tableRow;horizontal=0;startSize=0;swimlaneHead=0;swimlaneBody=0;fillColor=none;collapsible=0;dropTarget=0;points=[[0,0.5],[1,0.5]];portConstraint=eastwest;top=0;left=0;right=0;bottom=0;" vertex="1" parent="J7pDQWudLYsrYL_kbWkB-162">
          <mxGeometry y="90" width="180" height="30" as="geometry" />
        </mxCell>
        <mxCell id="J7pDQWudLYsrYL_kbWkB-170" value="" style="shape=partialRectangle;connectable=0;fillColor=none;top=0;left=0;bottom=0;right=0;editable=1;overflow=hidden;" vertex="1" parent="J7pDQWudLYsrYL_kbWkB-169">
          <mxGeometry width="28.5" height="30" as="geometry">
            <mxRectangle width="28.5" height="30" as="alternateBounds" />
          </mxGeometry>
        </mxCell>
        <mxCell id="J7pDQWudLYsrYL_kbWkB-171" value="Date" style="shape=partialRectangle;connectable=0;fillColor=none;top=0;left=0;bottom=0;right=0;align=left;spacingLeft=6;overflow=hidden;" vertex="1" parent="J7pDQWudLYsrYL_kbWkB-169">
          <mxGeometry x="28.5" width="151.5" height="30" as="geometry">
            <mxRectangle width="151.5" height="30" as="alternateBounds" />
          </mxGeometry>
        </mxCell>
        <mxCell id="J7pDQWudLYsrYL_kbWkB-172" value="" style="shape=tableRow;horizontal=0;startSize=0;swimlaneHead=0;swimlaneBody=0;fillColor=none;collapsible=0;dropTarget=0;points=[[0,0.5],[1,0.5]];portConstraint=eastwest;top=0;left=0;right=0;bottom=0;" vertex="1" parent="J7pDQWudLYsrYL_kbWkB-162">
          <mxGeometry y="120" width="180" height="30" as="geometry" />
        </mxCell>
        <mxCell id="J7pDQWudLYsrYL_kbWkB-173" value="FK" style="shape=partialRectangle;connectable=0;fillColor=none;top=0;left=0;bottom=0;right=0;editable=1;overflow=hidden;fontStyle=1" vertex="1" parent="J7pDQWudLYsrYL_kbWkB-172">
          <mxGeometry width="28.5" height="30" as="geometry">
            <mxRectangle width="28.5" height="30" as="alternateBounds" />
          </mxGeometry>
        </mxCell>
        <mxCell id="J7pDQWudLYsrYL_kbWkB-174" value="CargoId" style="shape=partialRectangle;connectable=0;fillColor=none;top=0;left=0;bottom=0;right=0;align=left;spacingLeft=6;overflow=hidden;fontStyle=1" vertex="1" parent="J7pDQWudLYsrYL_kbWkB-172">
          <mxGeometry x="28.5" width="151.5" height="30" as="geometry">
            <mxRectangle width="151.5" height="30" as="alternateBounds" />
          </mxGeometry>
        </mxCell>
        <mxCell id="J7pDQWudLYsrYL_kbWkB-175" value="" style="shape=tableRow;horizontal=0;startSize=0;swimlaneHead=0;swimlaneBody=0;fillColor=none;collapsible=0;dropTarget=0;points=[[0,0.5],[1,0.5]];portConstraint=eastwest;top=0;left=0;right=0;bottom=0;" vertex="1" parent="J7pDQWudLYsrYL_kbWkB-162">
          <mxGeometry y="150" width="180" height="30" as="geometry" />
        </mxCell>
        <mxCell id="J7pDQWudLYsrYL_kbWkB-176" value="" style="shape=partialRectangle;connectable=0;fillColor=none;top=0;left=0;bottom=0;right=0;editable=1;overflow=hidden;" vertex="1" parent="J7pDQWudLYsrYL_kbWkB-175">
          <mxGeometry width="28.5" height="30" as="geometry">
            <mxRectangle width="28.5" height="30" as="alternateBounds" />
          </mxGeometry>
        </mxCell>
        <mxCell id="J7pDQWudLYsrYL_kbWkB-177" value="ProjectDeliveryDate" style="shape=partialRectangle;connectable=0;fillColor=none;top=0;left=0;bottom=0;right=0;align=left;spacingLeft=6;overflow=hidden;" vertex="1" parent="J7pDQWudLYsrYL_kbWkB-175">
          <mxGeometry x="28.5" width="151.5" height="30" as="geometry">
            <mxRectangle width="151.5" height="30" as="alternateBounds" />
          </mxGeometry>
        </mxCell>
        <mxCell id="J7pDQWudLYsrYL_kbWkB-178" value="" style="shape=tableRow;horizontal=0;startSize=0;swimlaneHead=0;swimlaneBody=0;fillColor=none;collapsible=0;dropTarget=0;points=[[0,0.5],[1,0.5]];portConstraint=eastwest;top=0;left=0;right=0;bottom=0;" vertex="1" parent="J7pDQWudLYsrYL_kbWkB-162">
          <mxGeometry y="180" width="180" height="30" as="geometry" />
        </mxCell>
        <mxCell id="J7pDQWudLYsrYL_kbWkB-179" value="" style="shape=partialRectangle;connectable=0;fillColor=none;top=0;left=0;bottom=0;right=0;editable=1;overflow=hidden;" vertex="1" parent="J7pDQWudLYsrYL_kbWkB-178">
          <mxGeometry width="28.5" height="30" as="geometry">
            <mxRectangle width="28.5" height="30" as="alternateBounds" />
          </mxGeometry>
        </mxCell>
        <mxCell id="J7pDQWudLYsrYL_kbWkB-180" value="ClosedDate" style="shape=partialRectangle;connectable=0;fillColor=none;top=0;left=0;bottom=0;right=0;align=left;spacingLeft=6;overflow=hidden;" vertex="1" parent="J7pDQWudLYsrYL_kbWkB-178">
          <mxGeometry x="28.5" width="151.5" height="30" as="geometry">
            <mxRectangle width="151.5" height="30" as="alternateBounds" />
          </mxGeometry>
        </mxCell>
        <mxCell id="J7pDQWudLYsrYL_kbWkB-181" value="" style="shape=tableRow;horizontal=0;startSize=0;swimlaneHead=0;swimlaneBody=0;fillColor=none;collapsible=0;dropTarget=0;points=[[0,0.5],[1,0.5]];portConstraint=eastwest;top=0;left=0;right=0;bottom=0;" vertex="1" parent="J7pDQWudLYsrYL_kbWkB-162">
          <mxGeometry y="210" width="180" height="30" as="geometry" />
        </mxCell>
        <mxCell id="J7pDQWudLYsrYL_kbWkB-182" value="FK" style="shape=partialRectangle;connectable=0;fillColor=none;top=0;left=0;bottom=0;right=0;editable=1;overflow=hidden;fontStyle=1" vertex="1" parent="J7pDQWudLYsrYL_kbWkB-181">
          <mxGeometry width="28.5" height="30" as="geometry">
            <mxRectangle width="28.5" height="30" as="alternateBounds" />
          </mxGeometry>
        </mxCell>
        <mxCell id="J7pDQWudLYsrYL_kbWkB-183" value="CustomerId" style="shape=partialRectangle;connectable=0;fillColor=none;top=0;left=0;bottom=0;right=0;align=left;spacingLeft=6;overflow=hidden;fontStyle=1" vertex="1" parent="J7pDQWudLYsrYL_kbWkB-181">
          <mxGeometry x="28.5" width="151.5" height="30" as="geometry">
            <mxRectangle width="151.5" height="30" as="alternateBounds" />
          </mxGeometry>
        </mxCell>
        <mxCell id="J7pDQWudLYsrYL_kbWkB-184" value="" style="shape=tableRow;horizontal=0;startSize=0;swimlaneHead=0;swimlaneBody=0;fillColor=none;collapsible=0;dropTarget=0;points=[[0,0.5],[1,0.5]];portConstraint=eastwest;top=0;left=0;right=0;bottom=0;" vertex="1" parent="J7pDQWudLYsrYL_kbWkB-162">
          <mxGeometry y="240" width="180" height="30" as="geometry" />
        </mxCell>
        <mxCell id="J7pDQWudLYsrYL_kbWkB-185" value="FK" style="shape=partialRectangle;connectable=0;fillColor=none;top=0;left=0;bottom=0;right=0;editable=1;overflow=hidden;fontStyle=1" vertex="1" parent="J7pDQWudLYsrYL_kbWkB-184">
          <mxGeometry width="28.5" height="30" as="geometry">
            <mxRectangle width="28.5" height="30" as="alternateBounds" />
          </mxGeometry>
        </mxCell>
        <mxCell id="J7pDQWudLYsrYL_kbWkB-186" value="ShippingAdresID" style="shape=partialRectangle;connectable=0;fillColor=none;top=0;left=0;bottom=0;right=0;align=left;spacingLeft=6;overflow=hidden;fontStyle=1" vertex="1" parent="J7pDQWudLYsrYL_kbWkB-184">
          <mxGeometry x="28.5" width="151.5" height="30" as="geometry">
            <mxRectangle width="151.5" height="30" as="alternateBounds" />
          </mxGeometry>
        </mxCell>
        <mxCell id="J7pDQWudLYsrYL_kbWkB-187" value="" style="shape=tableRow;horizontal=0;startSize=0;swimlaneHead=0;swimlaneBody=0;fillColor=none;collapsible=0;dropTarget=0;points=[[0,0.5],[1,0.5]];portConstraint=eastwest;top=0;left=0;right=0;bottom=0;" vertex="1" parent="J7pDQWudLYsrYL_kbWkB-162">
          <mxGeometry y="270" width="180" height="30" as="geometry" />
        </mxCell>
        <mxCell id="J7pDQWudLYsrYL_kbWkB-188" value="FK" style="shape=partialRectangle;connectable=0;fillColor=none;top=0;left=0;bottom=0;right=0;editable=1;overflow=hidden;fontStyle=1" vertex="1" parent="J7pDQWudLYsrYL_kbWkB-187">
          <mxGeometry width="28.5" height="30" as="geometry">
            <mxRectangle width="28.5" height="30" as="alternateBounds" />
          </mxGeometry>
        </mxCell>
        <mxCell id="J7pDQWudLYsrYL_kbWkB-189" value="InvoiceAdresID" style="shape=partialRectangle;connectable=0;fillColor=none;top=0;left=0;bottom=0;right=0;align=left;spacingLeft=6;overflow=hidden;fontStyle=1" vertex="1" parent="J7pDQWudLYsrYL_kbWkB-187">
          <mxGeometry x="28.5" width="151.5" height="30" as="geometry">
            <mxRectangle width="151.5" height="30" as="alternateBounds" />
          </mxGeometry>
        </mxCell>
        <mxCell id="J7pDQWudLYsrYL_kbWkB-190" value="" style="edgeStyle=entityRelationEdgeStyle;fontSize=12;html=1;endArrow=ERoneToMany;rounded=0;entryX=1;entryY=0.5;entryDx=0;entryDy=0;exitX=1;exitY=0.5;exitDx=0;exitDy=0;" edge="1" parent="1" source="J7pDQWudLYsrYL_kbWkB-32" target="J7pDQWudLYsrYL_kbWkB-54">
          <mxGeometry width="100" height="100" relative="1" as="geometry">
            <mxPoint x="1780" y="1440" as="sourcePoint" />
            <mxPoint x="1881.5" y="1480" as="targetPoint" />
          </mxGeometry>
        </mxCell>
        <mxCell id="J7pDQWudLYsrYL_kbWkB-191" value="OrderProducts" style="shape=table;startSize=20;container=1;collapsible=1;childLayout=tableLayout;fixedRows=1;rowLines=0;fontStyle=1;align=center;resizeLast=1;fillColor=#FF8591;" vertex="1" parent="1">
          <mxGeometry x="1880" y="1020" width="180" height="210" as="geometry" />
        </mxCell>
        <mxCell id="J7pDQWudLYsrYL_kbWkB-192" value="" style="shape=tableRow;horizontal=0;startSize=0;swimlaneHead=0;swimlaneBody=0;fillColor=none;collapsible=0;dropTarget=0;points=[[0,0.5],[1,0.5]];portConstraint=eastwest;top=0;left=0;right=0;bottom=0;" vertex="1" parent="J7pDQWudLYsrYL_kbWkB-191">
          <mxGeometry y="20" width="180" height="30" as="geometry" />
        </mxCell>
        <mxCell id="J7pDQWudLYsrYL_kbWkB-193" value="FK1" style="shape=partialRectangle;connectable=0;fillColor=none;top=0;left=0;bottom=0;right=0;fontStyle=1;overflow=hidden;" vertex="1" parent="J7pDQWudLYsrYL_kbWkB-192">
          <mxGeometry width="60" height="30" as="geometry">
            <mxRectangle width="60" height="30" as="alternateBounds" />
          </mxGeometry>
        </mxCell>
        <mxCell id="J7pDQWudLYsrYL_kbWkB-194" value="ProductId" style="shape=partialRectangle;connectable=0;fillColor=none;top=0;left=0;bottom=0;right=0;align=left;spacingLeft=6;fontStyle=5;overflow=hidden;" vertex="1" parent="J7pDQWudLYsrYL_kbWkB-192">
          <mxGeometry x="60" width="120" height="30" as="geometry">
            <mxRectangle width="120" height="30" as="alternateBounds" />
          </mxGeometry>
        </mxCell>
        <mxCell id="J7pDQWudLYsrYL_kbWkB-195" value="" style="shape=tableRow;horizontal=0;startSize=0;swimlaneHead=0;swimlaneBody=0;fillColor=none;collapsible=0;dropTarget=0;points=[[0,0.5],[1,0.5]];portConstraint=eastwest;top=0;left=0;right=0;bottom=1;" vertex="1" parent="J7pDQWudLYsrYL_kbWkB-191">
          <mxGeometry y="50" width="180" height="30" as="geometry" />
        </mxCell>
        <mxCell id="J7pDQWudLYsrYL_kbWkB-196" value="FK2" style="shape=partialRectangle;connectable=0;fillColor=none;top=0;left=0;bottom=0;right=0;fontStyle=1;overflow=hidden;" vertex="1" parent="J7pDQWudLYsrYL_kbWkB-195">
          <mxGeometry width="60" height="30" as="geometry">
            <mxRectangle width="60" height="30" as="alternateBounds" />
          </mxGeometry>
        </mxCell>
        <mxCell id="J7pDQWudLYsrYL_kbWkB-197" value="OrderId" style="shape=partialRectangle;connectable=0;fillColor=none;top=0;left=0;bottom=0;right=0;align=left;spacingLeft=6;fontStyle=5;overflow=hidden;" vertex="1" parent="J7pDQWudLYsrYL_kbWkB-195">
          <mxGeometry x="60" width="120" height="30" as="geometry">
            <mxRectangle width="120" height="30" as="alternateBounds" />
          </mxGeometry>
        </mxCell>
        <mxCell id="J7pDQWudLYsrYL_kbWkB-198" value="" style="shape=tableRow;horizontal=0;startSize=0;swimlaneHead=0;swimlaneBody=0;fillColor=none;collapsible=0;dropTarget=0;points=[[0,0.5],[1,0.5]];portConstraint=eastwest;top=0;left=0;right=0;bottom=0;" vertex="1" parent="J7pDQWudLYsrYL_kbWkB-191">
          <mxGeometry y="80" width="180" height="30" as="geometry" />
        </mxCell>
        <mxCell id="J7pDQWudLYsrYL_kbWkB-199" value="" style="shape=partialRectangle;connectable=0;fillColor=none;top=0;left=0;bottom=0;right=0;editable=1;overflow=hidden;" vertex="1" parent="J7pDQWudLYsrYL_kbWkB-198">
          <mxGeometry width="60" height="30" as="geometry">
            <mxRectangle width="60" height="30" as="alternateBounds" />
          </mxGeometry>
        </mxCell>
        <mxCell id="J7pDQWudLYsrYL_kbWkB-200" value="Quantity" style="shape=partialRectangle;connectable=0;fillColor=none;top=0;left=0;bottom=0;right=0;align=left;spacingLeft=6;overflow=hidden;" vertex="1" parent="J7pDQWudLYsrYL_kbWkB-198">
          <mxGeometry x="60" width="120" height="30" as="geometry">
            <mxRectangle width="120" height="30" as="alternateBounds" />
          </mxGeometry>
        </mxCell>
        <mxCell id="J7pDQWudLYsrYL_kbWkB-201" value="" style="shape=tableRow;horizontal=0;startSize=0;swimlaneHead=0;swimlaneBody=0;fillColor=none;collapsible=0;dropTarget=0;points=[[0,0.5],[1,0.5]];portConstraint=eastwest;top=0;left=0;right=0;bottom=0;" vertex="1" parent="J7pDQWudLYsrYL_kbWkB-191">
          <mxGeometry y="110" width="180" height="30" as="geometry" />
        </mxCell>
        <mxCell id="J7pDQWudLYsrYL_kbWkB-202" value="" style="shape=partialRectangle;connectable=0;fillColor=none;top=0;left=0;bottom=0;right=0;editable=1;overflow=hidden;" vertex="1" parent="J7pDQWudLYsrYL_kbWkB-201">
          <mxGeometry width="60" height="30" as="geometry">
            <mxRectangle width="60" height="30" as="alternateBounds" />
          </mxGeometry>
        </mxCell>
        <mxCell id="J7pDQWudLYsrYL_kbWkB-203" value="TotalPrice" style="shape=partialRectangle;connectable=0;fillColor=none;top=0;left=0;bottom=0;right=0;align=left;spacingLeft=6;overflow=hidden;" vertex="1" parent="J7pDQWudLYsrYL_kbWkB-201">
          <mxGeometry x="60" width="120" height="30" as="geometry">
            <mxRectangle width="120" height="30" as="alternateBounds" />
          </mxGeometry>
        </mxCell>
        <mxCell id="J7pDQWudLYsrYL_kbWkB-204" value="" style="shape=tableRow;horizontal=0;startSize=0;swimlaneHead=0;swimlaneBody=0;fillColor=none;collapsible=0;dropTarget=0;points=[[0,0.5],[1,0.5]];portConstraint=eastwest;top=0;left=0;right=0;bottom=0;" vertex="1" parent="J7pDQWudLYsrYL_kbWkB-191">
          <mxGeometry y="140" width="180" height="30" as="geometry" />
        </mxCell>
        <mxCell id="J7pDQWudLYsrYL_kbWkB-205" value="PK" style="shape=partialRectangle;connectable=0;fillColor=none;top=0;left=0;bottom=0;right=0;fontStyle=1;overflow=hidden;" vertex="1" parent="J7pDQWudLYsrYL_kbWkB-204">
          <mxGeometry width="60" height="30" as="geometry">
            <mxRectangle width="60" height="30" as="alternateBounds" />
          </mxGeometry>
        </mxCell>
        <mxCell id="J7pDQWudLYsrYL_kbWkB-206" value="Id" style="shape=partialRectangle;connectable=0;fillColor=none;top=0;left=0;bottom=0;right=0;align=left;spacingLeft=6;fontStyle=5;overflow=hidden;" vertex="1" parent="J7pDQWudLYsrYL_kbWkB-204">
          <mxGeometry x="60" width="120" height="30" as="geometry">
            <mxRectangle width="120" height="30" as="alternateBounds" />
          </mxGeometry>
        </mxCell>
        <mxCell id="J7pDQWudLYsrYL_kbWkB-207" value="" style="shape=tableRow;horizontal=0;startSize=0;swimlaneHead=0;swimlaneBody=0;fillColor=none;collapsible=0;dropTarget=0;points=[[0,0.5],[1,0.5]];portConstraint=eastwest;top=0;left=0;right=0;bottom=0;" vertex="1" parent="J7pDQWudLYsrYL_kbWkB-191">
          <mxGeometry y="170" width="180" height="30" as="geometry" />
        </mxCell>
        <mxCell id="J7pDQWudLYsrYL_kbWkB-208" value="" style="shape=partialRectangle;connectable=0;fillColor=none;top=0;left=0;bottom=0;right=0;editable=1;overflow=hidden;" vertex="1" parent="J7pDQWudLYsrYL_kbWkB-207">
          <mxGeometry width="60" height="30" as="geometry">
            <mxRectangle width="60" height="30" as="alternateBounds" />
          </mxGeometry>
        </mxCell>
        <mxCell id="J7pDQWudLYsrYL_kbWkB-209" value="DeliveryDate" style="shape=partialRectangle;connectable=0;fillColor=none;top=0;left=0;bottom=0;right=0;align=left;spacingLeft=6;overflow=hidden;" vertex="1" parent="J7pDQWudLYsrYL_kbWkB-207">
          <mxGeometry x="60" width="120" height="30" as="geometry">
            <mxRectangle width="120" height="30" as="alternateBounds" />
          </mxGeometry>
        </mxCell>
        <mxCell id="J7pDQWudLYsrYL_kbWkB-210" value="" style="edgeStyle=entityRelationEdgeStyle;fontSize=12;html=1;endArrow=ERoneToMany;rounded=0;exitX=1;exitY=0.5;exitDx=0;exitDy=0;entryX=0;entryY=0.5;entryDx=0;entryDy=0;" edge="1" parent="1" source="J7pDQWudLYsrYL_kbWkB-138" target="J7pDQWudLYsrYL_kbWkB-61">
          <mxGeometry width="100" height="100" relative="1" as="geometry">
            <mxPoint x="1240" y="1210" as="sourcePoint" />
            <mxPoint x="1310" y="1350" as="targetPoint" />
          </mxGeometry>
        </mxCell>
        <mxCell id="J7pDQWudLYsrYL_kbWkB-211" value="" style="edgeStyle=entityRelationEdgeStyle;fontSize=12;html=1;endArrow=ERoneToMany;rounded=0;entryX=1;entryY=0.5;entryDx=0;entryDy=0;exitX=1;exitY=0.5;exitDx=0;exitDy=0;" edge="1" parent="1" source="J7pDQWudLYsrYL_kbWkB-3" target="J7pDQWudLYsrYL_kbWkB-58">
          <mxGeometry width="100" height="100" relative="1" as="geometry">
            <mxPoint x="1800" y="865" as="sourcePoint" />
            <mxPoint x="1590" y="735" as="targetPoint" />
          </mxGeometry>
        </mxCell>
        <mxCell id="J7pDQWudLYsrYL_kbWkB-212" value="" style="edgeStyle=entityRelationEdgeStyle;fontSize=12;html=1;endArrow=ERoneToMany;rounded=0;exitX=0.995;exitY=0.844;exitDx=0;exitDy=0;exitPerimeter=0;entryX=0;entryY=0.5;entryDx=0;entryDy=0;" edge="1" parent="1" source="J7pDQWudLYsrYL_kbWkB-118" target="J7pDQWudLYsrYL_kbWkB-172">
          <mxGeometry width="100" height="100" relative="1" as="geometry">
            <mxPoint x="1750" y="1360" as="sourcePoint" />
            <mxPoint x="2001.5" y="1440" as="targetPoint" />
          </mxGeometry>
        </mxCell>
        <mxCell id="J7pDQWudLYsrYL_kbWkB-213" value="" style="edgeStyle=entityRelationEdgeStyle;fontSize=12;html=1;endArrow=ERoneToMany;rounded=0;entryX=1.018;entryY=0.289;entryDx=0;entryDy=0;entryPerimeter=0;exitX=0;exitY=0.5;exitDx=0;exitDy=0;" edge="1" parent="1" source="J7pDQWudLYsrYL_kbWkB-163" target="J7pDQWudLYsrYL_kbWkB-195">
          <mxGeometry width="100" height="100" relative="1" as="geometry">
            <mxPoint x="2190" y="1410" as="sourcePoint" />
            <mxPoint x="2200" y="1250" as="targetPoint" />
          </mxGeometry>
        </mxCell>
        <mxCell id="J7pDQWudLYsrYL_kbWkB-214" value="" style="edgeStyle=entityRelationEdgeStyle;fontSize=12;html=1;endArrow=ERoneToMany;rounded=0;entryX=0;entryY=0.5;entryDx=0;entryDy=0;exitX=1;exitY=0.5;exitDx=0;exitDy=0;" edge="1" parent="1" source="J7pDQWudLYsrYL_kbWkB-32" target="J7pDQWudLYsrYL_kbWkB-181">
          <mxGeometry width="100" height="100" relative="1" as="geometry">
            <mxPoint x="2041.5" y="1740" as="sourcePoint" />
            <mxPoint x="2141.5" y="1640" as="targetPoint" />
          </mxGeometry>
        </mxCell>
        <mxCell id="J7pDQWudLYsrYL_kbWkB-215" value="" style="edgeStyle=entityRelationEdgeStyle;fontSize=12;html=1;endArrow=ERoneToMany;rounded=0;entryX=0;entryY=0.5;entryDx=0;entryDy=0;exitX=1;exitY=0.5;exitDx=0;exitDy=0;" edge="1" parent="1" source="J7pDQWudLYsrYL_kbWkB-45" target="J7pDQWudLYsrYL_kbWkB-184">
          <mxGeometry width="100" height="100" relative="1" as="geometry">
            <mxPoint x="1660" y="1660" as="sourcePoint" />
            <mxPoint x="2010" y="1540" as="targetPoint" />
          </mxGeometry>
        </mxCell>
        <mxCell id="J7pDQWudLYsrYL_kbWkB-216" value="" style="edgeStyle=entityRelationEdgeStyle;fontSize=12;html=1;endArrow=ERoneToMany;rounded=0;exitX=1;exitY=0.5;exitDx=0;exitDy=0;entryX=0;entryY=0.5;entryDx=0;entryDy=0;" edge="1" parent="1" source="J7pDQWudLYsrYL_kbWkB-3" target="J7pDQWudLYsrYL_kbWkB-105">
          <mxGeometry width="100" height="100" relative="1" as="geometry">
            <mxPoint x="1850" y="1090" as="sourcePoint" />
            <mxPoint x="1950" y="990" as="targetPoint" />
          </mxGeometry>
        </mxCell>
        <mxCell id="J7pDQWudLYsrYL_kbWkB-217" value="" style="edgeStyle=entityRelationEdgeStyle;fontSize=12;html=1;endArrow=ERoneToMany;rounded=0;exitX=1;exitY=0.5;exitDx=0;exitDy=0;entryX=0;entryY=0.5;entryDx=0;entryDy=0;" edge="1" parent="1" source="J7pDQWudLYsrYL_kbWkB-3" target="J7pDQWudLYsrYL_kbWkB-192">
          <mxGeometry width="100" height="100" relative="1" as="geometry">
            <mxPoint x="1910" y="1270" as="sourcePoint" />
            <mxPoint x="2010" y="1170" as="targetPoint" />
          </mxGeometry>
        </mxCell>
        <mxCell id="J7pDQWudLYsrYL_kbWkB-218" value="" style="edgeStyle=entityRelationEdgeStyle;fontSize=12;html=1;endArrow=ERoneToMany;rounded=0;exitX=0;exitY=0.5;exitDx=0;exitDy=0;entryX=1;entryY=0.5;entryDx=0;entryDy=0;" edge="1" parent="1" source="J7pDQWudLYsrYL_kbWkB-118" target="J7pDQWudLYsrYL_kbWkB-134">
          <mxGeometry width="100" height="100" relative="1" as="geometry">
            <mxPoint x="1730" y="1310" as="sourcePoint" />
            <mxPoint x="1810" y="1190" as="targetPoint" />
          </mxGeometry>
        </mxCell>
        <mxCell id="J7pDQWudLYsrYL_kbWkB-219" value="" style="edgeStyle=entityRelationEdgeStyle;fontSize=12;html=1;endArrow=ERoneToMany;rounded=0;entryX=1;entryY=0.5;entryDx=0;entryDy=0;exitX=1;exitY=0.5;exitDx=0;exitDy=0;" edge="1" parent="1" source="J7pDQWudLYsrYL_kbWkB-3" target="J7pDQWudLYsrYL_kbWkB-131">
          <mxGeometry width="100" height="100" relative="1" as="geometry">
            <mxPoint x="1810" y="860" as="sourcePoint" />
            <mxPoint x="1750" y="970" as="targetPoint" />
          </mxGeometry>
        </mxCell>
        <mxCell id="J7pDQWudLYsrYL_kbWkB-220" value="Baskets" style="shape=table;startSize=30;container=1;collapsible=1;childLayout=tableLayout;fixedRows=1;rowLines=0;fontStyle=1;align=center;resizeLast=1;shadow=1;strokeColor=#000000;fillColor=#66FFD6;" vertex="1" parent="1">
          <mxGeometry x="1080" y="1150" width="180" height="90.00000000000023" as="geometry" />
        </mxCell>
        <mxCell id="J7pDQWudLYsrYL_kbWkB-221" value="" style="shape=tableRow;horizontal=0;startSize=0;swimlaneHead=0;swimlaneBody=0;fillColor=none;collapsible=0;dropTarget=0;points=[[0,0.5],[1,0.5]];portConstraint=eastwest;top=0;left=0;right=0;bottom=1;shadow=1;strokeColor=#CCE5FF;" vertex="1" parent="J7pDQWudLYsrYL_kbWkB-220">
          <mxGeometry y="30" width="180" height="30" as="geometry" />
        </mxCell>
        <mxCell id="J7pDQWudLYsrYL_kbWkB-222" value="PK" style="shape=partialRectangle;connectable=0;fillColor=none;top=0;left=0;bottom=0;right=0;fontStyle=1;overflow=hidden;shadow=1;strokeColor=#CCE5FF;" vertex="1" parent="J7pDQWudLYsrYL_kbWkB-221">
          <mxGeometry width="30" height="30" as="geometry">
            <mxRectangle width="30" height="30" as="alternateBounds" />
          </mxGeometry>
        </mxCell>
        <mxCell id="J7pDQWudLYsrYL_kbWkB-223" value="UniqueID" style="shape=partialRectangle;connectable=0;fillColor=none;top=0;left=0;bottom=0;right=0;align=left;spacingLeft=6;fontStyle=5;overflow=hidden;shadow=1;strokeColor=#000000;" vertex="1" parent="J7pDQWudLYsrYL_kbWkB-221">
          <mxGeometry x="30" width="150" height="30" as="geometry">
            <mxRectangle width="150" height="30" as="alternateBounds" />
          </mxGeometry>
        </mxCell>
        <mxCell id="J7pDQWudLYsrYL_kbWkB-224" value="" style="shape=tableRow;horizontal=0;startSize=0;swimlaneHead=0;swimlaneBody=0;fillColor=none;collapsible=0;dropTarget=0;points=[[0,0.5],[1,0.5]];portConstraint=eastwest;top=0;left=0;right=0;bottom=0;shadow=1;strokeColor=#CCE5FF;" vertex="1" parent="J7pDQWudLYsrYL_kbWkB-220">
          <mxGeometry y="60" width="180" height="30" as="geometry" />
        </mxCell>
        <mxCell id="J7pDQWudLYsrYL_kbWkB-225" value="FK" style="shape=partialRectangle;connectable=0;fillColor=none;top=0;left=0;bottom=0;right=0;editable=1;overflow=hidden;shadow=1;strokeColor=#CCE5FF;fontStyle=1" vertex="1" parent="J7pDQWudLYsrYL_kbWkB-224">
          <mxGeometry width="30" height="30" as="geometry">
            <mxRectangle width="30" height="30" as="alternateBounds" />
          </mxGeometry>
        </mxCell>
        <mxCell id="J7pDQWudLYsrYL_kbWkB-226" value="CustomerID" style="shape=partialRectangle;connectable=0;fillColor=none;top=0;left=0;bottom=0;right=0;align=left;spacingLeft=6;overflow=hidden;shadow=1;strokeColor=#CCE5FF;fontStyle=1" vertex="1" parent="J7pDQWudLYsrYL_kbWkB-224">
          <mxGeometry x="30" width="150" height="30" as="geometry">
            <mxRectangle width="150" height="30" as="alternateBounds" />
          </mxGeometry>
        </mxCell>
        <mxCell id="J7pDQWudLYsrYL_kbWkB-227" value="BasketProducts" style="shape=table;startSize=30;container=1;collapsible=1;childLayout=tableLayout;fixedRows=1;rowLines=0;fontStyle=1;align=center;resizeLast=1;shadow=1;strokeColor=#000000;fillColor=#66FFD6;" vertex="1" parent="1">
          <mxGeometry x="1343" y="810" width="180" height="90" as="geometry" />
        </mxCell>
        <mxCell id="J7pDQWudLYsrYL_kbWkB-228" value="" style="shape=tableRow;horizontal=0;startSize=0;swimlaneHead=0;swimlaneBody=0;fillColor=none;collapsible=0;dropTarget=0;points=[[0,0.5],[1,0.5]];portConstraint=eastwest;top=0;left=0;right=0;bottom=0;shadow=1;strokeColor=#CCE5FF;" vertex="1" parent="J7pDQWudLYsrYL_kbWkB-227">
          <mxGeometry y="30" width="180" height="30" as="geometry" />
        </mxCell>
        <mxCell id="J7pDQWudLYsrYL_kbWkB-229" value="PK,FK1" style="shape=partialRectangle;connectable=0;fillColor=none;top=0;left=0;bottom=0;right=0;fontStyle=1;overflow=hidden;shadow=1;strokeColor=#CCE5FF;" vertex="1" parent="J7pDQWudLYsrYL_kbWkB-228">
          <mxGeometry width="60" height="30" as="geometry">
            <mxRectangle width="60" height="30" as="alternateBounds" />
          </mxGeometry>
        </mxCell>
        <mxCell id="J7pDQWudLYsrYL_kbWkB-230" value="BasketID" style="shape=partialRectangle;connectable=0;fillColor=none;top=0;left=0;bottom=0;right=0;align=left;spacingLeft=6;fontStyle=5;overflow=hidden;shadow=1;strokeColor=#CCE5FF;" vertex="1" parent="J7pDQWudLYsrYL_kbWkB-228">
          <mxGeometry x="60" width="120" height="30" as="geometry">
            <mxRectangle width="120" height="30" as="alternateBounds" />
          </mxGeometry>
        </mxCell>
        <mxCell id="J7pDQWudLYsrYL_kbWkB-231" value="" style="shape=tableRow;horizontal=0;startSize=0;swimlaneHead=0;swimlaneBody=0;fillColor=none;collapsible=0;dropTarget=0;points=[[0,0.5],[1,0.5]];portConstraint=eastwest;top=0;left=0;right=0;bottom=1;shadow=1;strokeColor=#CCE5FF;" vertex="1" parent="J7pDQWudLYsrYL_kbWkB-227">
          <mxGeometry y="60" width="180" height="30" as="geometry" />
        </mxCell>
        <mxCell id="J7pDQWudLYsrYL_kbWkB-232" value="PK,FK2" style="shape=partialRectangle;connectable=0;fillColor=none;top=0;left=0;bottom=0;right=0;fontStyle=1;overflow=hidden;shadow=1;strokeColor=#CCE5FF;" vertex="1" parent="J7pDQWudLYsrYL_kbWkB-231">
          <mxGeometry width="60" height="30" as="geometry">
            <mxRectangle width="60" height="30" as="alternateBounds" />
          </mxGeometry>
        </mxCell>
        <mxCell id="J7pDQWudLYsrYL_kbWkB-233" value="ProductID" style="shape=partialRectangle;connectable=0;fillColor=none;top=0;left=0;bottom=0;right=0;align=left;spacingLeft=6;fontStyle=5;overflow=hidden;shadow=1;strokeColor=#CCE5FF;" vertex="1" parent="J7pDQWudLYsrYL_kbWkB-231">
          <mxGeometry x="60" width="120" height="30" as="geometry">
            <mxRectangle width="120" height="30" as="alternateBounds" />
          </mxGeometry>
        </mxCell>
        <mxCell id="J7pDQWudLYsrYL_kbWkB-234" value="" style="edgeStyle=entityRelationEdgeStyle;fontSize=12;html=1;endArrow=ERoneToMany;rounded=0;entryX=1;entryY=0.5;entryDx=0;entryDy=0;exitX=-0.007;exitY=0.067;exitDx=0;exitDy=0;exitPerimeter=0;" edge="1" parent="1" source="J7pDQWudLYsrYL_kbWkB-3" target="J7pDQWudLYsrYL_kbWkB-231">
          <mxGeometry width="100" height="100" relative="1" as="geometry">
            <mxPoint x="1400" y="900" as="sourcePoint" />
            <mxPoint x="1500" y="800" as="targetPoint" />
          </mxGeometry>
        </mxCell>
        <mxCell id="J7pDQWudLYsrYL_kbWkB-235" value="" style="edgeStyle=entityRelationEdgeStyle;fontSize=12;html=1;endArrow=ERoneToMany;rounded=0;exitX=1.015;exitY=0.733;exitDx=0;exitDy=0;exitPerimeter=0;entryX=-0.026;entryY=0.778;entryDx=0;entryDy=0;entryPerimeter=0;" edge="1" parent="1" source="J7pDQWudLYsrYL_kbWkB-221" target="J7pDQWudLYsrYL_kbWkB-228">
          <mxGeometry width="100" height="100" relative="1" as="geometry">
            <mxPoint x="1070" y="890" as="sourcePoint" />
            <mxPoint x="1170" y="790" as="targetPoint" />
          </mxGeometry>
        </mxCell>
        <mxCell id="J7pDQWudLYsrYL_kbWkB-236" value="" style="edgeStyle=entityRelationEdgeStyle;fontSize=12;html=1;endArrow=ERmandOne;startArrow=ERmandOne;rounded=0;entryX=0;entryY=0.5;entryDx=0;entryDy=0;exitX=1;exitY=0.5;exitDx=0;exitDy=0;" edge="1" parent="1" source="J7pDQWudLYsrYL_kbWkB-224" target="J7pDQWudLYsrYL_kbWkB-32">
          <mxGeometry width="100" height="100" relative="1" as="geometry">
            <mxPoint x="1250" y="950" as="sourcePoint" />
            <mxPoint x="1320" y="1210" as="targetPoint" />
          </mxGeometry>
        </mxCell>
        <mxCell id="J7pDQWudLYsrYL_kbWkB-237" value="&lt;font style=&quot;&quot;&gt;&lt;span style=&quot;font-size: 16px; background-color: rgb(255, 255, 255);&quot;&gt;&lt;br&gt;&lt;b style=&quot;&quot;&gt;&lt;font style=&quot;font-size: 16px;&quot; color=&quot;#ff0000&quot;&gt;N&lt;/font&gt;&lt;font color=&quot;#ff3333&quot; style=&quot;font-size: 16px;&quot;&gt;ORMALİZASYON NEDİR?&lt;/font&gt;&lt;/b&gt;&lt;br&gt;&lt;font style=&quot;color: rgb(4, 4, 5); font-size: 16px;&quot;&gt;Veri Tabanı Normalizasyon, veritabanının tasarım aşamasında veri tekrarını, veri kaybını veya veri yetersizliğini önlemek için gerçekleştirilen işlemler bütünüdür.&lt;br&gt;&lt;br&gt;&lt;/font&gt;&lt;b style=&quot;&quot;&gt;&lt;font style=&quot;font-size: 16px;&quot;&gt;&lt;font color=&quot;#ff3333&quot;&gt;NORMALİZASYON FORMLARI&lt;/font&gt;&lt;br&gt;&lt;/font&gt;&lt;/b&gt;&lt;/span&gt;&lt;span style=&quot;color: rgb(4, 4, 5); font-size: 16px; box-sizing: inherit; background-color: rgb(255, 255, 255);&quot;&gt;– Birinci Normal Form (1NF)&lt;br style=&quot;box-sizing: inherit;&quot;&gt;– İkinci Normal Form (2NF)&lt;br style=&quot;box-sizing: inherit;&quot;&gt;– Üçüncü Normal Form (3NF)&lt;/span&gt;&lt;span style=&quot;background-color: rgb(255, 255, 255);&quot;&gt;&lt;br&gt;&lt;br&gt;&lt;span style=&quot;font-size: 16px;&quot;&gt;&lt;b&gt;&lt;font color=&quot;#ff0000&quot;&gt;B)2.Normal Form Kuralları&lt;/font&gt;&lt;/b&gt;&lt;/span&gt;&lt;br&gt;&lt;/span&gt;&lt;/font&gt;&lt;div style=&quot;&quot;&gt;&lt;div style=&quot;&quot;&gt;&lt;span style=&quot;font-size: 16px;&quot;&gt;1)Birinci normal formun uygulanması&lt;/span&gt;&lt;/div&gt;&lt;div style=&quot;&quot;&gt;&lt;span style=&quot;font-size: 16px;&quot;&gt;2)Yatay tekrar söz konusu olamaz&lt;/span&gt;&lt;/div&gt;&lt;div style=&quot;&quot;&gt;&lt;span style=&quot;font-size: 16px;&quot;&gt;3)Tekrar eden kolondaki veriler, farklı tablolara ayrıştırılmalıdır&lt;/span&gt;&lt;/div&gt;&lt;div style=&quot;&quot;&gt;&lt;span style=&quot;font-size: 16px;&quot;&gt;4)Ana tablo ile yeni tablolar arasında, dış anahtarlar (foreign key) kullanılarak ilişkiler tanımlanmalıdır.&lt;/span&gt;&lt;/div&gt;&lt;div style=&quot;&quot;&gt;&lt;span style=&quot;font-size: 16px;&quot;&gt;&lt;br&gt;&lt;/span&gt;&lt;/div&gt;&lt;div style=&quot;&quot;&gt;&lt;span style=&quot;font-size: 16px;&quot;&gt;&lt;b&gt;&lt;font color=&quot;#ff0000&quot;&gt;C)3.Normal Form Kuralları&lt;/font&gt;&lt;/b&gt;&lt;/span&gt;&lt;/div&gt;&lt;div style=&quot;&quot;&gt;&lt;span style=&quot;font-size: 16px;&quot;&gt;1)İkinci normal form uygulanmalı&lt;/span&gt;&lt;/div&gt;&lt;div style=&quot;&quot;&gt;&lt;span style=&quot;font-size: 16px;&quot;&gt;2)Çoka çok ilişkinin uygulanması gerekir&lt;/span&gt;&lt;/div&gt;&lt;div style=&quot;&quot;&gt;&lt;span style=&quot;font-size: 16px;&quot;&gt;3)Her kolon eşsiz anahtara tam bağımlı olmak zorundadır&lt;/span&gt;&lt;/div&gt;&lt;div style=&quot;&quot;&gt;&lt;span style=&quot;font-size: 16px;&quot;&gt;&lt;br&gt;&lt;/span&gt;&lt;/div&gt;&lt;div style=&quot;&quot;&gt;&lt;span style=&quot;font-size: 16px;&quot;&gt;&lt;b&gt;&lt;font color=&quot;#ff0000&quot;&gt;D)4.Normal Form Kuralları&lt;/font&gt;&lt;/b&gt;&lt;/span&gt;&lt;/div&gt;&lt;div style=&quot;&quot;&gt;&lt;span style=&quot;font-size: 16px;&quot;&gt;1)Veri Tabanı üçüncü normal forma uygun olmalıdır&lt;/span&gt;&lt;/div&gt;&lt;div style=&quot;&quot;&gt;&lt;span style=&quot;font-size: 16px;&quot;&gt;2)Çok-değerli bağımlılıkları (Multli-Valued dependency) olmamalıdır&lt;/span&gt;&lt;/div&gt;&lt;/div&gt;" style="text;html=1;strokeColor=none;fillColor=none;align=left;verticalAlign=middle;whiteSpace=wrap;rounded=0;" vertex="1" parent="1">
          <mxGeometry x="410" y="675" width="560" height="485" as="geometry" />
        </mxCell>
        <mxCell id="J7pDQWudLYsrYL_kbWkB-238" value="" style="swimlane;startSize=0;labelBackgroundColor=none;fontFamily=Helvetica;fontSize=16;fontColor=#FF3333;" vertex="1" parent="1">
          <mxGeometry x="400" y="660" width="560" height="520" as="geometry" />
        </mxCell>
        <mxCell id="J7pDQWudLYsrYL_kbWkB-239" value="Cities" style="shape=table;startSize=30;container=1;collapsible=1;childLayout=tableLayout;fixedRows=1;rowLines=0;fontStyle=1;align=center;resizeLast=1;labelBackgroundColor=none;fontFamily=Helvetica;fontSize=12;fillColor=#dae8fc;strokeColor=#040405;" vertex="1" parent="1">
          <mxGeometry x="1450" y="1560" width="180" height="120" as="geometry" />
        </mxCell>
        <mxCell id="J7pDQWudLYsrYL_kbWkB-240" value="" style="shape=tableRow;horizontal=0;startSize=0;swimlaneHead=0;swimlaneBody=0;fillColor=none;collapsible=0;dropTarget=0;points=[[0,0.5],[1,0.5]];portConstraint=eastwest;top=0;left=0;right=0;bottom=1;labelBackgroundColor=none;fontFamily=Helvetica;fontSize=16;fontColor=#FF3333;strokeColor=#040405;" vertex="1" parent="J7pDQWudLYsrYL_kbWkB-239">
          <mxGeometry y="30" width="180" height="30" as="geometry" />
        </mxCell>
        <mxCell id="J7pDQWudLYsrYL_kbWkB-241" value="PK" style="shape=partialRectangle;connectable=0;fillColor=none;top=0;left=0;bottom=0;right=0;fontStyle=1;overflow=hidden;labelBackgroundColor=none;fontFamily=Helvetica;fontSize=12;fontColor=#040405;" vertex="1" parent="J7pDQWudLYsrYL_kbWkB-240">
          <mxGeometry width="30" height="30" as="geometry">
            <mxRectangle width="30" height="30" as="alternateBounds" />
          </mxGeometry>
        </mxCell>
        <mxCell id="J7pDQWudLYsrYL_kbWkB-242" value="ID" style="shape=partialRectangle;connectable=0;fillColor=none;top=0;left=0;bottom=0;right=0;align=left;spacingLeft=6;fontStyle=5;overflow=hidden;labelBackgroundColor=none;fontFamily=Helvetica;fontSize=12;fontColor=#040405;" vertex="1" parent="J7pDQWudLYsrYL_kbWkB-240">
          <mxGeometry x="30" width="150" height="30" as="geometry">
            <mxRectangle width="150" height="30" as="alternateBounds" />
          </mxGeometry>
        </mxCell>
        <mxCell id="J7pDQWudLYsrYL_kbWkB-243" value="" style="shape=tableRow;horizontal=0;startSize=0;swimlaneHead=0;swimlaneBody=0;fillColor=none;collapsible=0;dropTarget=0;points=[[0,0.5],[1,0.5]];portConstraint=eastwest;top=0;left=0;right=0;bottom=0;labelBackgroundColor=none;fontFamily=Helvetica;fontSize=16;fontColor=#FF3333;" vertex="1" parent="J7pDQWudLYsrYL_kbWkB-239">
          <mxGeometry y="60" width="180" height="30" as="geometry" />
        </mxCell>
        <mxCell id="J7pDQWudLYsrYL_kbWkB-244" value="" style="shape=partialRectangle;connectable=0;fillColor=none;top=0;left=0;bottom=0;right=0;editable=1;overflow=hidden;labelBackgroundColor=none;fontFamily=Helvetica;fontSize=16;fontColor=#FF3333;" vertex="1" parent="J7pDQWudLYsrYL_kbWkB-243">
          <mxGeometry width="30" height="30" as="geometry">
            <mxRectangle width="30" height="30" as="alternateBounds" />
          </mxGeometry>
        </mxCell>
        <mxCell id="J7pDQWudLYsrYL_kbWkB-245" value="Name" style="shape=partialRectangle;connectable=0;fillColor=none;top=0;left=0;bottom=0;right=0;align=left;spacingLeft=6;overflow=hidden;labelBackgroundColor=none;fontFamily=Helvetica;fontSize=12;fontColor=#040405;" vertex="1" parent="J7pDQWudLYsrYL_kbWkB-243">
          <mxGeometry x="30" width="150" height="30" as="geometry">
            <mxRectangle width="150" height="30" as="alternateBounds" />
          </mxGeometry>
        </mxCell>
        <mxCell id="J7pDQWudLYsrYL_kbWkB-246" value="" style="shape=tableRow;horizontal=0;startSize=0;swimlaneHead=0;swimlaneBody=0;fillColor=none;collapsible=0;dropTarget=0;points=[[0,0.5],[1,0.5]];portConstraint=eastwest;top=0;left=0;right=0;bottom=0;labelBackgroundColor=none;fontFamily=Helvetica;fontSize=16;fontColor=#FF3333;" vertex="1" parent="J7pDQWudLYsrYL_kbWkB-239">
          <mxGeometry y="90" width="180" height="30" as="geometry" />
        </mxCell>
        <mxCell id="J7pDQWudLYsrYL_kbWkB-247" value="FK" style="shape=partialRectangle;connectable=0;fillColor=none;top=0;left=0;bottom=0;right=0;editable=1;overflow=hidden;labelBackgroundColor=none;fontFamily=Helvetica;fontSize=12;fontColor=#040405;fontStyle=1" vertex="1" parent="J7pDQWudLYsrYL_kbWkB-246">
          <mxGeometry width="30" height="30" as="geometry">
            <mxRectangle width="30" height="30" as="alternateBounds" />
          </mxGeometry>
        </mxCell>
        <mxCell id="J7pDQWudLYsrYL_kbWkB-248" value="StreetId" style="shape=partialRectangle;connectable=0;fillColor=none;top=0;left=0;bottom=0;right=0;align=left;spacingLeft=6;overflow=hidden;labelBackgroundColor=none;fontFamily=Helvetica;fontSize=12;fontColor=#040405;fontStyle=1" vertex="1" parent="J7pDQWudLYsrYL_kbWkB-246">
          <mxGeometry x="30" width="150" height="30" as="geometry">
            <mxRectangle width="150" height="30" as="alternateBounds" />
          </mxGeometry>
        </mxCell>
        <mxCell id="J7pDQWudLYsrYL_kbWkB-249" value="" style="edgeStyle=entityRelationEdgeStyle;fontSize=12;html=1;endArrow=ERoneToMany;rounded=0;fontFamily=Helvetica;fontColor=#040405;exitX=1;exitY=0.5;exitDx=0;exitDy=0;entryX=0;entryY=0.5;entryDx=0;entryDy=0;" edge="1" parent="1" source="J7pDQWudLYsrYL_kbWkB-240" target="J7pDQWudLYsrYL_kbWkB-288">
          <mxGeometry width="100" height="100" relative="1" as="geometry">
            <mxPoint x="1780" y="1540" as="sourcePoint" />
            <mxPoint x="1880" y="1440" as="targetPoint" />
          </mxGeometry>
        </mxCell>
        <mxCell id="J7pDQWudLYsrYL_kbWkB-250" value="Variants" style="shape=table;startSize=30;container=1;collapsible=1;childLayout=tableLayout;fixedRows=1;rowLines=0;fontStyle=1;align=center;resizeLast=1;labelBackgroundColor=none;strokeColor=#000000;fontFamily=Helvetica;fontSize=12;fillColor=#fff2cc;" vertex="1" parent="1">
          <mxGeometry x="1440" y="530" width="180" height="140" as="geometry" />
        </mxCell>
        <mxCell id="J7pDQWudLYsrYL_kbWkB-251" value="" style="shape=tableRow;horizontal=0;startSize=0;swimlaneHead=0;swimlaneBody=0;fillColor=none;collapsible=0;dropTarget=0;points=[[0,0.5],[1,0.5]];portConstraint=eastwest;top=0;left=0;right=0;bottom=1;labelBackgroundColor=none;strokeColor=#040405;fontFamily=Helvetica;fontSize=12;fontColor=#040405;" vertex="1" parent="J7pDQWudLYsrYL_kbWkB-250">
          <mxGeometry y="30" width="180" height="30" as="geometry" />
        </mxCell>
        <mxCell id="J7pDQWudLYsrYL_kbWkB-252" value="PK" style="shape=partialRectangle;connectable=0;fillColor=none;top=0;left=0;bottom=0;right=0;fontStyle=1;overflow=hidden;labelBackgroundColor=none;strokeColor=#040405;fontFamily=Helvetica;fontSize=12;fontColor=#040405;" vertex="1" parent="J7pDQWudLYsrYL_kbWkB-251">
          <mxGeometry width="30" height="30" as="geometry">
            <mxRectangle width="30" height="30" as="alternateBounds" />
          </mxGeometry>
        </mxCell>
        <mxCell id="J7pDQWudLYsrYL_kbWkB-253" value="ID" style="shape=partialRectangle;connectable=0;fillColor=none;top=0;left=0;bottom=0;right=0;align=left;spacingLeft=6;fontStyle=5;overflow=hidden;labelBackgroundColor=none;strokeColor=#040405;fontFamily=Helvetica;fontSize=12;fontColor=#040405;" vertex="1" parent="J7pDQWudLYsrYL_kbWkB-251">
          <mxGeometry x="30" width="150" height="30" as="geometry">
            <mxRectangle width="150" height="30" as="alternateBounds" />
          </mxGeometry>
        </mxCell>
        <mxCell id="J7pDQWudLYsrYL_kbWkB-254" value="" style="shape=tableRow;horizontal=0;startSize=0;swimlaneHead=0;swimlaneBody=0;fillColor=none;collapsible=0;dropTarget=0;points=[[0,0.5],[1,0.5]];portConstraint=eastwest;top=0;left=0;right=0;bottom=0;labelBackgroundColor=none;strokeColor=#040405;fontFamily=Helvetica;fontSize=12;fontColor=#040405;" vertex="1" parent="J7pDQWudLYsrYL_kbWkB-250">
          <mxGeometry y="60" width="180" height="30" as="geometry" />
        </mxCell>
        <mxCell id="J7pDQWudLYsrYL_kbWkB-255" value="FK" style="shape=partialRectangle;connectable=0;fillColor=none;top=0;left=0;bottom=0;right=0;editable=1;overflow=hidden;labelBackgroundColor=none;strokeColor=#040405;fontFamily=Helvetica;fontSize=12;fontColor=#040405;fontStyle=1" vertex="1" parent="J7pDQWudLYsrYL_kbWkB-254">
          <mxGeometry width="30" height="30" as="geometry">
            <mxRectangle width="30" height="30" as="alternateBounds" />
          </mxGeometry>
        </mxCell>
        <mxCell id="J7pDQWudLYsrYL_kbWkB-256" value="ColorsId" style="shape=partialRectangle;connectable=0;fillColor=none;top=0;left=0;bottom=0;right=0;align=left;spacingLeft=6;overflow=hidden;labelBackgroundColor=none;strokeColor=#040405;fontFamily=Helvetica;fontSize=12;fontColor=#040405;fontStyle=1" vertex="1" parent="J7pDQWudLYsrYL_kbWkB-254">
          <mxGeometry x="30" width="150" height="30" as="geometry">
            <mxRectangle width="150" height="30" as="alternateBounds" />
          </mxGeometry>
        </mxCell>
        <mxCell id="J7pDQWudLYsrYL_kbWkB-257" value="" style="shape=tableRow;horizontal=0;startSize=0;swimlaneHead=0;swimlaneBody=0;fillColor=none;collapsible=0;dropTarget=0;points=[[0,0.5],[1,0.5]];portConstraint=eastwest;top=0;left=0;right=0;bottom=0;labelBackgroundColor=none;strokeColor=#040405;fontFamily=Helvetica;fontSize=12;fontColor=#040405;" vertex="1" parent="J7pDQWudLYsrYL_kbWkB-250">
          <mxGeometry y="90" width="180" height="30" as="geometry" />
        </mxCell>
        <mxCell id="J7pDQWudLYsrYL_kbWkB-258" value="FK" style="shape=partialRectangle;connectable=0;fillColor=none;top=0;left=0;bottom=0;right=0;editable=1;overflow=hidden;labelBackgroundColor=none;strokeColor=#040405;fontFamily=Helvetica;fontSize=12;fontColor=#040405;fontStyle=1" vertex="1" parent="J7pDQWudLYsrYL_kbWkB-257">
          <mxGeometry width="30" height="30" as="geometry">
            <mxRectangle width="30" height="30" as="alternateBounds" />
          </mxGeometry>
        </mxCell>
        <mxCell id="J7pDQWudLYsrYL_kbWkB-259" value="SizeId" style="shape=partialRectangle;connectable=0;fillColor=none;top=0;left=0;bottom=0;right=0;align=left;spacingLeft=6;overflow=hidden;labelBackgroundColor=none;strokeColor=#040405;fontFamily=Helvetica;fontSize=12;fontColor=#040405;fontStyle=1" vertex="1" parent="J7pDQWudLYsrYL_kbWkB-257">
          <mxGeometry x="30" width="150" height="30" as="geometry">
            <mxRectangle width="150" height="30" as="alternateBounds" />
          </mxGeometry>
        </mxCell>
        <mxCell id="J7pDQWudLYsrYL_kbWkB-260" value="" style="shape=tableRow;horizontal=0;startSize=0;swimlaneHead=0;swimlaneBody=0;fillColor=none;collapsible=0;dropTarget=0;points=[[0,0.5],[1,0.5]];portConstraint=eastwest;top=0;left=0;right=0;bottom=0;labelBackgroundColor=none;strokeColor=#040405;fontFamily=Helvetica;fontSize=12;fontColor=#040405;" vertex="1" parent="J7pDQWudLYsrYL_kbWkB-250">
          <mxGeometry y="120" width="180" height="20" as="geometry" />
        </mxCell>
        <mxCell id="J7pDQWudLYsrYL_kbWkB-261" value="FK" style="shape=partialRectangle;connectable=0;fillColor=none;top=0;left=0;bottom=0;right=0;editable=1;overflow=hidden;labelBackgroundColor=none;strokeColor=#040405;fontFamily=Helvetica;fontSize=12;fontColor=#040405;fontStyle=1" vertex="1" parent="J7pDQWudLYsrYL_kbWkB-260">
          <mxGeometry width="30" height="20" as="geometry">
            <mxRectangle width="30" height="20" as="alternateBounds" />
          </mxGeometry>
        </mxCell>
        <mxCell id="J7pDQWudLYsrYL_kbWkB-262" value="QualificationId" style="shape=partialRectangle;connectable=0;fillColor=none;top=0;left=0;bottom=0;right=0;align=left;spacingLeft=6;overflow=hidden;labelBackgroundColor=none;strokeColor=#040405;fontFamily=Helvetica;fontSize=12;fontColor=#040405;fontStyle=1" vertex="1" parent="J7pDQWudLYsrYL_kbWkB-260">
          <mxGeometry x="30" width="150" height="20" as="geometry">
            <mxRectangle width="150" height="20" as="alternateBounds" />
          </mxGeometry>
        </mxCell>
        <mxCell id="J7pDQWudLYsrYL_kbWkB-263" value="ProductVariant" style="shape=table;startSize=30;container=1;collapsible=1;childLayout=tableLayout;fixedRows=1;rowLines=0;fontStyle=1;align=center;resizeLast=1;labelBackgroundColor=none;strokeColor=#000000;fontFamily=Helvetica;fontSize=12;fillColor=#d5e8d4;" vertex="1" parent="1">
          <mxGeometry x="1660" y="560" width="180" height="90" as="geometry" />
        </mxCell>
        <mxCell id="J7pDQWudLYsrYL_kbWkB-264" value="" style="shape=tableRow;horizontal=0;startSize=0;swimlaneHead=0;swimlaneBody=0;fillColor=none;collapsible=0;dropTarget=0;points=[[0,0.5],[1,0.5]];portConstraint=eastwest;top=0;left=0;right=0;bottom=0;labelBackgroundColor=none;strokeColor=#040405;fontFamily=Helvetica;fontSize=12;fontColor=#040405;" vertex="1" parent="J7pDQWudLYsrYL_kbWkB-263">
          <mxGeometry y="30" width="180" height="30" as="geometry" />
        </mxCell>
        <mxCell id="J7pDQWudLYsrYL_kbWkB-265" value="PK,FK1" style="shape=partialRectangle;connectable=0;fillColor=none;top=0;left=0;bottom=0;right=0;fontStyle=1;overflow=hidden;labelBackgroundColor=none;strokeColor=#040405;fontFamily=Helvetica;fontSize=12;fontColor=#040405;" vertex="1" parent="J7pDQWudLYsrYL_kbWkB-264">
          <mxGeometry width="60" height="30" as="geometry">
            <mxRectangle width="60" height="30" as="alternateBounds" />
          </mxGeometry>
        </mxCell>
        <mxCell id="J7pDQWudLYsrYL_kbWkB-266" value="ProductId" style="shape=partialRectangle;connectable=0;fillColor=none;top=0;left=0;bottom=0;right=0;align=left;spacingLeft=6;fontStyle=5;overflow=hidden;labelBackgroundColor=none;strokeColor=#040405;fontFamily=Helvetica;fontSize=12;fontColor=#040405;" vertex="1" parent="J7pDQWudLYsrYL_kbWkB-264">
          <mxGeometry x="60" width="120" height="30" as="geometry">
            <mxRectangle width="120" height="30" as="alternateBounds" />
          </mxGeometry>
        </mxCell>
        <mxCell id="J7pDQWudLYsrYL_kbWkB-267" value="" style="shape=tableRow;horizontal=0;startSize=0;swimlaneHead=0;swimlaneBody=0;fillColor=none;collapsible=0;dropTarget=0;points=[[0,0.5],[1,0.5]];portConstraint=eastwest;top=0;left=0;right=0;bottom=1;labelBackgroundColor=none;strokeColor=#040405;fontFamily=Helvetica;fontSize=12;fontColor=#040405;" vertex="1" parent="J7pDQWudLYsrYL_kbWkB-263">
          <mxGeometry y="60" width="180" height="30" as="geometry" />
        </mxCell>
        <mxCell id="J7pDQWudLYsrYL_kbWkB-268" value="PK,FK2" style="shape=partialRectangle;connectable=0;fillColor=none;top=0;left=0;bottom=0;right=0;fontStyle=1;overflow=hidden;labelBackgroundColor=none;strokeColor=#040405;fontFamily=Helvetica;fontSize=12;fontColor=#040405;" vertex="1" parent="J7pDQWudLYsrYL_kbWkB-267">
          <mxGeometry width="60" height="30" as="geometry">
            <mxRectangle width="60" height="30" as="alternateBounds" />
          </mxGeometry>
        </mxCell>
        <mxCell id="J7pDQWudLYsrYL_kbWkB-269" value="VariantId" style="shape=partialRectangle;connectable=0;fillColor=none;top=0;left=0;bottom=0;right=0;align=left;spacingLeft=6;fontStyle=5;overflow=hidden;labelBackgroundColor=none;strokeColor=#040405;fontFamily=Helvetica;fontSize=12;fontColor=#040405;" vertex="1" parent="J7pDQWudLYsrYL_kbWkB-267">
          <mxGeometry x="60" width="120" height="30" as="geometry">
            <mxRectangle width="120" height="30" as="alternateBounds" />
          </mxGeometry>
        </mxCell>
        <mxCell id="J7pDQWudLYsrYL_kbWkB-270" value="" style="edgeStyle=entityRelationEdgeStyle;fontSize=12;html=1;endArrow=ERoneToMany;rounded=0;fontFamily=Helvetica;fontColor=#040405;exitX=1;exitY=0.5;exitDx=0;exitDy=0;entryX=0;entryY=0.5;entryDx=0;entryDy=0;" edge="1" parent="1" source="J7pDQWudLYsrYL_kbWkB-251" target="J7pDQWudLYsrYL_kbWkB-267">
          <mxGeometry width="100" height="100" relative="1" as="geometry">
            <mxPoint x="1550" y="430" as="sourcePoint" />
            <mxPoint x="1650" y="330" as="targetPoint" />
          </mxGeometry>
        </mxCell>
        <mxCell id="J7pDQWudLYsrYL_kbWkB-271" value="" style="edgeStyle=entityRelationEdgeStyle;fontSize=12;html=1;endArrow=ERoneToMany;rounded=0;fontFamily=Helvetica;fontColor=#040405;entryX=1;entryY=0.5;entryDx=0;entryDy=0;exitX=1;exitY=0.5;exitDx=0;exitDy=0;" edge="1" parent="1" source="J7pDQWudLYsrYL_kbWkB-3" target="J7pDQWudLYsrYL_kbWkB-264">
          <mxGeometry width="100" height="100" relative="1" as="geometry">
            <mxPoint x="1780" y="590" as="sourcePoint" />
            <mxPoint x="1790" y="880" as="targetPoint" />
          </mxGeometry>
        </mxCell>
        <mxCell id="J7pDQWudLYsrYL_kbWkB-272" value="" style="endArrow=none;html=1;rounded=0;fontFamily=Helvetica;fontSize=12;fontColor=#040405;" edge="1" parent="1">
          <mxGeometry relative="1" as="geometry">
            <mxPoint x="1080" y="1210" as="sourcePoint" />
            <mxPoint x="1260" y="1210" as="targetPoint" />
          </mxGeometry>
        </mxCell>
        <mxCell id="J7pDQWudLYsrYL_kbWkB-273" value="Streets" style="shape=table;startSize=30;container=1;collapsible=1;childLayout=tableLayout;fixedRows=1;rowLines=0;fontStyle=1;align=center;resizeLast=1;labelBackgroundColor=none;strokeColor=#000000;fontFamily=Helvetica;fontSize=12;fillColor=#d5e8d4;" vertex="1" parent="1">
          <mxGeometry x="1220" y="1560" width="180" height="90" as="geometry" />
        </mxCell>
        <mxCell id="J7pDQWudLYsrYL_kbWkB-274" value="" style="shape=tableRow;horizontal=0;startSize=0;swimlaneHead=0;swimlaneBody=0;fillColor=none;collapsible=0;dropTarget=0;points=[[0,0.5],[1,0.5]];portConstraint=eastwest;top=0;left=0;right=0;bottom=1;labelBackgroundColor=none;strokeColor=#000000;fontFamily=Helvetica;fontSize=12;fontColor=#040405;" vertex="1" parent="J7pDQWudLYsrYL_kbWkB-273">
          <mxGeometry y="30" width="180" height="30" as="geometry" />
        </mxCell>
        <mxCell id="J7pDQWudLYsrYL_kbWkB-275" value="PK" style="shape=partialRectangle;connectable=0;fillColor=none;top=0;left=0;bottom=0;right=0;fontStyle=1;overflow=hidden;labelBackgroundColor=none;strokeColor=#000000;fontFamily=Helvetica;fontSize=12;fontColor=#040405;" vertex="1" parent="J7pDQWudLYsrYL_kbWkB-274">
          <mxGeometry width="30" height="30" as="geometry">
            <mxRectangle width="30" height="30" as="alternateBounds" />
          </mxGeometry>
        </mxCell>
        <mxCell id="J7pDQWudLYsrYL_kbWkB-276" value="ID" style="shape=partialRectangle;connectable=0;fillColor=none;top=0;left=0;bottom=0;right=0;align=left;spacingLeft=6;fontStyle=5;overflow=hidden;labelBackgroundColor=none;strokeColor=#000000;fontFamily=Helvetica;fontSize=12;fontColor=#040405;" vertex="1" parent="J7pDQWudLYsrYL_kbWkB-274">
          <mxGeometry x="30" width="150" height="30" as="geometry">
            <mxRectangle width="150" height="30" as="alternateBounds" />
          </mxGeometry>
        </mxCell>
        <mxCell id="J7pDQWudLYsrYL_kbWkB-277" value="" style="shape=tableRow;horizontal=0;startSize=0;swimlaneHead=0;swimlaneBody=0;fillColor=none;collapsible=0;dropTarget=0;points=[[0,0.5],[1,0.5]];portConstraint=eastwest;top=0;left=0;right=0;bottom=0;labelBackgroundColor=none;strokeColor=#000000;fontFamily=Helvetica;fontSize=12;fontColor=#040405;" vertex="1" parent="J7pDQWudLYsrYL_kbWkB-273">
          <mxGeometry y="60" width="180" height="30" as="geometry" />
        </mxCell>
        <mxCell id="J7pDQWudLYsrYL_kbWkB-278" value="" style="shape=partialRectangle;connectable=0;fillColor=none;top=0;left=0;bottom=0;right=0;editable=1;overflow=hidden;labelBackgroundColor=none;strokeColor=#000000;fontFamily=Helvetica;fontSize=12;fontColor=#040405;" vertex="1" parent="J7pDQWudLYsrYL_kbWkB-277">
          <mxGeometry width="30" height="30" as="geometry">
            <mxRectangle width="30" height="30" as="alternateBounds" />
          </mxGeometry>
        </mxCell>
        <mxCell id="J7pDQWudLYsrYL_kbWkB-279" value="Name" style="shape=partialRectangle;connectable=0;fillColor=none;top=0;left=0;bottom=0;right=0;align=left;spacingLeft=6;overflow=hidden;labelBackgroundColor=none;strokeColor=#000000;fontFamily=Helvetica;fontSize=12;fontColor=#040405;" vertex="1" parent="J7pDQWudLYsrYL_kbWkB-277">
          <mxGeometry x="30" width="150" height="30" as="geometry">
            <mxRectangle width="150" height="30" as="alternateBounds" />
          </mxGeometry>
        </mxCell>
        <mxCell id="J7pDQWudLYsrYL_kbWkB-280" value="" style="edgeStyle=entityRelationEdgeStyle;fontSize=12;html=1;endArrow=ERoneToMany;rounded=0;fontFamily=Helvetica;fontColor=#040405;exitX=1;exitY=0.5;exitDx=0;exitDy=0;entryX=0;entryY=0.5;entryDx=0;entryDy=0;" edge="1" parent="1" source="J7pDQWudLYsrYL_kbWkB-274" target="J7pDQWudLYsrYL_kbWkB-246">
          <mxGeometry width="100" height="100" relative="1" as="geometry">
            <mxPoint x="1500" y="1690" as="sourcePoint" />
            <mxPoint x="1600" y="1590" as="targetPoint" />
          </mxGeometry>
        </mxCell>
        <mxCell id="J7pDQWudLYsrYL_kbWkB-281" value="Countries" style="shape=table;startSize=30;container=1;collapsible=1;childLayout=tableLayout;fixedRows=1;rowLines=0;fontStyle=1;align=center;resizeLast=1;labelBackgroundColor=none;strokeColor=#000000;fontFamily=Helvetica;fontSize=12;fillColor=#fff2cc;gradientColor=#ffd966;" vertex="1" parent="1">
          <mxGeometry x="1680" y="1560" width="180" height="120" as="geometry" />
        </mxCell>
        <mxCell id="J7pDQWudLYsrYL_kbWkB-282" value="" style="shape=tableRow;horizontal=0;startSize=0;swimlaneHead=0;swimlaneBody=0;fillColor=none;collapsible=0;dropTarget=0;points=[[0,0.5],[1,0.5]];portConstraint=eastwest;top=0;left=0;right=0;bottom=1;labelBackgroundColor=none;strokeColor=#000000;fontFamily=Helvetica;fontSize=12;fontColor=#040405;" vertex="1" parent="J7pDQWudLYsrYL_kbWkB-281">
          <mxGeometry y="30" width="180" height="30" as="geometry" />
        </mxCell>
        <mxCell id="J7pDQWudLYsrYL_kbWkB-283" value="PK" style="shape=partialRectangle;connectable=0;fillColor=none;top=0;left=0;bottom=0;right=0;fontStyle=1;overflow=hidden;labelBackgroundColor=none;strokeColor=#000000;fontFamily=Helvetica;fontSize=12;fontColor=#040405;" vertex="1" parent="J7pDQWudLYsrYL_kbWkB-282">
          <mxGeometry width="30" height="30" as="geometry">
            <mxRectangle width="30" height="30" as="alternateBounds" />
          </mxGeometry>
        </mxCell>
        <mxCell id="J7pDQWudLYsrYL_kbWkB-284" value="ID" style="shape=partialRectangle;connectable=0;fillColor=none;top=0;left=0;bottom=0;right=0;align=left;spacingLeft=6;fontStyle=5;overflow=hidden;labelBackgroundColor=none;strokeColor=#000000;fontFamily=Helvetica;fontSize=12;fontColor=#040405;" vertex="1" parent="J7pDQWudLYsrYL_kbWkB-282">
          <mxGeometry x="30" width="150" height="30" as="geometry">
            <mxRectangle width="150" height="30" as="alternateBounds" />
          </mxGeometry>
        </mxCell>
        <mxCell id="J7pDQWudLYsrYL_kbWkB-285" value="" style="shape=tableRow;horizontal=0;startSize=0;swimlaneHead=0;swimlaneBody=0;fillColor=none;collapsible=0;dropTarget=0;points=[[0,0.5],[1,0.5]];portConstraint=eastwest;top=0;left=0;right=0;bottom=0;labelBackgroundColor=none;strokeColor=#000000;fontFamily=Helvetica;fontSize=12;fontColor=#040405;" vertex="1" parent="J7pDQWudLYsrYL_kbWkB-281">
          <mxGeometry y="60" width="180" height="30" as="geometry" />
        </mxCell>
        <mxCell id="J7pDQWudLYsrYL_kbWkB-286" value="" style="shape=partialRectangle;connectable=0;fillColor=none;top=0;left=0;bottom=0;right=0;editable=1;overflow=hidden;labelBackgroundColor=none;strokeColor=#000000;fontFamily=Helvetica;fontSize=12;fontColor=#040405;" vertex="1" parent="J7pDQWudLYsrYL_kbWkB-285">
          <mxGeometry width="30" height="30" as="geometry">
            <mxRectangle width="30" height="30" as="alternateBounds" />
          </mxGeometry>
        </mxCell>
        <mxCell id="J7pDQWudLYsrYL_kbWkB-287" value="Name" style="shape=partialRectangle;connectable=0;fillColor=none;top=0;left=0;bottom=0;right=0;align=left;spacingLeft=6;overflow=hidden;labelBackgroundColor=none;strokeColor=#000000;fontFamily=Helvetica;fontSize=12;fontColor=#040405;" vertex="1" parent="J7pDQWudLYsrYL_kbWkB-285">
          <mxGeometry x="30" width="150" height="30" as="geometry">
            <mxRectangle width="150" height="30" as="alternateBounds" />
          </mxGeometry>
        </mxCell>
        <mxCell id="J7pDQWudLYsrYL_kbWkB-288" value="" style="shape=tableRow;horizontal=0;startSize=0;swimlaneHead=0;swimlaneBody=0;fillColor=none;collapsible=0;dropTarget=0;points=[[0,0.5],[1,0.5]];portConstraint=eastwest;top=0;left=0;right=0;bottom=0;labelBackgroundColor=none;strokeColor=#000000;fontFamily=Helvetica;fontSize=12;fontColor=#040405;" vertex="1" parent="J7pDQWudLYsrYL_kbWkB-281">
          <mxGeometry y="90" width="180" height="30" as="geometry" />
        </mxCell>
        <mxCell id="J7pDQWudLYsrYL_kbWkB-289" value="FK" style="shape=partialRectangle;connectable=0;fillColor=none;top=0;left=0;bottom=0;right=0;editable=1;overflow=hidden;labelBackgroundColor=none;strokeColor=#000000;fontFamily=Helvetica;fontSize=12;fontColor=#040405;fontStyle=1" vertex="1" parent="J7pDQWudLYsrYL_kbWkB-288">
          <mxGeometry width="30" height="30" as="geometry">
            <mxRectangle width="30" height="30" as="alternateBounds" />
          </mxGeometry>
        </mxCell>
        <mxCell id="J7pDQWudLYsrYL_kbWkB-290" value="CitiesId" style="shape=partialRectangle;connectable=0;fillColor=none;top=0;left=0;bottom=0;right=0;align=left;spacingLeft=6;overflow=hidden;labelBackgroundColor=none;strokeColor=#000000;fontFamily=Helvetica;fontSize=12;fontColor=#040405;fontStyle=1" vertex="1" parent="J7pDQWudLYsrYL_kbWkB-288">
          <mxGeometry x="30" width="150" height="30" as="geometry">
            <mxRectangle width="150" height="30" as="alternateBounds" />
          </mxGeometry>
        </mxCell>
        <mxCell id="J7pDQWudLYsrYL_kbWkB-291" value="" style="edgeStyle=entityRelationEdgeStyle;fontSize=12;html=1;endArrow=ERoneToMany;rounded=0;fontFamily=Helvetica;fontColor=#040405;exitX=1;exitY=0.5;exitDx=0;exitDy=0;entryX=0;entryY=0.5;entryDx=0;entryDy=0;" edge="1" parent="1" source="J7pDQWudLYsrYL_kbWkB-282" target="J7pDQWudLYsrYL_kbWkB-51">
          <mxGeometry width="100" height="100" relative="1" as="geometry">
            <mxPoint x="1620" y="1760" as="sourcePoint" />
            <mxPoint x="1730" y="1640" as="targetPoint" />
          </mxGeometry>
        </mxCell>
        <mxCell id="J7pDQWudLYsrYL_kbWkB-292" value="" style="edgeStyle=entityRelationEdgeStyle;fontSize=12;html=1;endArrow=ERoneToMany;rounded=0;fontFamily=Helvetica;fontColor=#040405;entryX=0;entryY=0.5;entryDx=0;entryDy=0;exitX=1;exitY=0.5;exitDx=0;exitDy=0;" edge="1" parent="1" source="J7pDQWudLYsrYL_kbWkB-45" target="J7pDQWudLYsrYL_kbWkB-187">
          <mxGeometry width="100" height="100" relative="1" as="geometry">
            <mxPoint x="2110" y="1630" as="sourcePoint" />
            <mxPoint x="2210" y="1530" as="targetPoint" />
          </mxGeometry>
        </mxCell>
        <mxCell id="J7pDQWudLYsrYL_kbWkB-293" value="Titles" style="shape=table;startSize=30;container=1;collapsible=1;childLayout=tableLayout;fixedRows=1;rowLines=0;fontStyle=1;align=center;resizeLast=1;labelBackgroundColor=none;fontFamily=Helvetica;fontSize=12;fillColor=#dae8fc;strokeColor=#000000;" vertex="1" parent="1">
          <mxGeometry x="1110" y="490" width="180" height="90" as="geometry" />
        </mxCell>
        <mxCell id="J7pDQWudLYsrYL_kbWkB-294" value="" style="shape=tableRow;horizontal=0;startSize=0;swimlaneHead=0;swimlaneBody=0;fillColor=none;collapsible=0;dropTarget=0;points=[[0,0.5],[1,0.5]];portConstraint=eastwest;top=0;left=0;right=0;bottom=1;labelBackgroundColor=none;strokeColor=#000000;fontFamily=Helvetica;fontSize=12;fontColor=#040405;" vertex="1" parent="J7pDQWudLYsrYL_kbWkB-293">
          <mxGeometry y="30" width="180" height="30" as="geometry" />
        </mxCell>
        <mxCell id="J7pDQWudLYsrYL_kbWkB-295" value="PK" style="shape=partialRectangle;connectable=0;fillColor=none;top=0;left=0;bottom=0;right=0;fontStyle=1;overflow=hidden;labelBackgroundColor=none;strokeColor=#000000;fontFamily=Helvetica;fontSize=12;fontColor=#040405;" vertex="1" parent="J7pDQWudLYsrYL_kbWkB-294">
          <mxGeometry width="30" height="30" as="geometry">
            <mxRectangle width="30" height="30" as="alternateBounds" />
          </mxGeometry>
        </mxCell>
        <mxCell id="J7pDQWudLYsrYL_kbWkB-296" value="ID" style="shape=partialRectangle;connectable=0;fillColor=none;top=0;left=0;bottom=0;right=0;align=left;spacingLeft=6;fontStyle=5;overflow=hidden;labelBackgroundColor=none;strokeColor=#000000;fontFamily=Helvetica;fontSize=12;fontColor=#040405;" vertex="1" parent="J7pDQWudLYsrYL_kbWkB-294">
          <mxGeometry x="30" width="150" height="30" as="geometry">
            <mxRectangle width="150" height="30" as="alternateBounds" />
          </mxGeometry>
        </mxCell>
        <mxCell id="J7pDQWudLYsrYL_kbWkB-297" value="" style="shape=tableRow;horizontal=0;startSize=0;swimlaneHead=0;swimlaneBody=0;fillColor=none;collapsible=0;dropTarget=0;points=[[0,0.5],[1,0.5]];portConstraint=eastwest;top=0;left=0;right=0;bottom=0;labelBackgroundColor=none;strokeColor=#000000;fontFamily=Helvetica;fontSize=12;fontColor=#040405;" vertex="1" parent="J7pDQWudLYsrYL_kbWkB-293">
          <mxGeometry y="60" width="180" height="30" as="geometry" />
        </mxCell>
        <mxCell id="J7pDQWudLYsrYL_kbWkB-298" value="" style="shape=partialRectangle;connectable=0;fillColor=none;top=0;left=0;bottom=0;right=0;editable=1;overflow=hidden;labelBackgroundColor=none;strokeColor=#000000;fontFamily=Helvetica;fontSize=12;fontColor=#040405;" vertex="1" parent="J7pDQWudLYsrYL_kbWkB-297">
          <mxGeometry width="30" height="30" as="geometry">
            <mxRectangle width="30" height="30" as="alternateBounds" />
          </mxGeometry>
        </mxCell>
        <mxCell id="J7pDQWudLYsrYL_kbWkB-299" value="Type" style="shape=partialRectangle;connectable=0;fillColor=none;top=0;left=0;bottom=0;right=0;align=left;spacingLeft=6;overflow=hidden;labelBackgroundColor=none;strokeColor=#000000;fontFamily=Helvetica;fontSize=12;fontColor=#040405;" vertex="1" parent="J7pDQWudLYsrYL_kbWkB-297">
          <mxGeometry x="30" width="150" height="30" as="geometry">
            <mxRectangle width="150" height="30" as="alternateBounds" />
          </mxGeometry>
        </mxCell>
        <mxCell id="J7pDQWudLYsrYL_kbWkB-300" value="" style="edgeStyle=entityRelationEdgeStyle;fontSize=12;html=1;endArrow=ERoneToMany;rounded=0;fontFamily=Helvetica;fontColor=#040405;" edge="1" parent="1" source="J7pDQWudLYsrYL_kbWkB-147" target="J7pDQWudLYsrYL_kbWkB-294">
          <mxGeometry width="100" height="100" relative="1" as="geometry">
            <mxPoint x="950" y="600" as="sourcePoint" />
            <mxPoint x="1050" y="500" as="targetPoint" />
          </mxGeometry>
        </mxCell>
        <mxCell id="J7pDQWudLYsrYL_kbWkB-301" value="Colors" style="shape=table;startSize=30;container=1;collapsible=1;childLayout=tableLayout;fixedRows=1;rowLines=0;fontStyle=1;align=center;resizeLast=1;labelBackgroundColor=none;fontFamily=Helvetica;fontSize=12;fillColor=#f8cecc;strokeColor=#000000;" vertex="1" parent="1">
          <mxGeometry x="1110" y="170" width="180" height="90" as="geometry" />
        </mxCell>
        <mxCell id="J7pDQWudLYsrYL_kbWkB-302" value="" style="shape=tableRow;horizontal=0;startSize=0;swimlaneHead=0;swimlaneBody=0;fillColor=none;collapsible=0;dropTarget=0;points=[[0,0.5],[1,0.5]];portConstraint=eastwest;top=0;left=0;right=0;bottom=1;labelBackgroundColor=none;strokeColor=#000000;fontFamily=Helvetica;fontSize=12;fontColor=#000000;" vertex="1" parent="J7pDQWudLYsrYL_kbWkB-301">
          <mxGeometry y="30" width="180" height="30" as="geometry" />
        </mxCell>
        <mxCell id="J7pDQWudLYsrYL_kbWkB-303" value="PK" style="shape=partialRectangle;connectable=0;fillColor=none;top=0;left=0;bottom=0;right=0;fontStyle=1;overflow=hidden;labelBackgroundColor=none;strokeColor=#000000;fontFamily=Helvetica;fontSize=12;fontColor=#000000;" vertex="1" parent="J7pDQWudLYsrYL_kbWkB-302">
          <mxGeometry width="30" height="30" as="geometry">
            <mxRectangle width="30" height="30" as="alternateBounds" />
          </mxGeometry>
        </mxCell>
        <mxCell id="J7pDQWudLYsrYL_kbWkB-304" value="ID" style="shape=partialRectangle;connectable=0;fillColor=none;top=0;left=0;bottom=0;right=0;align=left;spacingLeft=6;fontStyle=5;overflow=hidden;labelBackgroundColor=none;strokeColor=#000000;fontFamily=Helvetica;fontSize=12;fontColor=#000000;" vertex="1" parent="J7pDQWudLYsrYL_kbWkB-302">
          <mxGeometry x="30" width="150" height="30" as="geometry">
            <mxRectangle width="150" height="30" as="alternateBounds" />
          </mxGeometry>
        </mxCell>
        <mxCell id="J7pDQWudLYsrYL_kbWkB-305" value="" style="shape=tableRow;horizontal=0;startSize=0;swimlaneHead=0;swimlaneBody=0;fillColor=none;collapsible=0;dropTarget=0;points=[[0,0.5],[1,0.5]];portConstraint=eastwest;top=0;left=0;right=0;bottom=0;labelBackgroundColor=none;strokeColor=#000000;fontFamily=Helvetica;fontSize=12;fontColor=#000000;" vertex="1" parent="J7pDQWudLYsrYL_kbWkB-301">
          <mxGeometry y="60" width="180" height="30" as="geometry" />
        </mxCell>
        <mxCell id="J7pDQWudLYsrYL_kbWkB-306" value="" style="shape=partialRectangle;connectable=0;fillColor=none;top=0;left=0;bottom=0;right=0;editable=1;overflow=hidden;labelBackgroundColor=none;strokeColor=#000000;fontFamily=Helvetica;fontSize=12;fontColor=#000000;" vertex="1" parent="J7pDQWudLYsrYL_kbWkB-305">
          <mxGeometry width="30" height="30" as="geometry">
            <mxRectangle width="30" height="30" as="alternateBounds" />
          </mxGeometry>
        </mxCell>
        <mxCell id="J7pDQWudLYsrYL_kbWkB-307" value="Name" style="shape=partialRectangle;connectable=0;fillColor=none;top=0;left=0;bottom=0;right=0;align=left;spacingLeft=6;overflow=hidden;labelBackgroundColor=none;strokeColor=#000000;fontFamily=Helvetica;fontSize=12;fontColor=#000000;" vertex="1" parent="J7pDQWudLYsrYL_kbWkB-305">
          <mxGeometry x="30" width="150" height="30" as="geometry">
            <mxRectangle width="150" height="30" as="alternateBounds" />
          </mxGeometry>
        </mxCell>
        <mxCell id="J7pDQWudLYsrYL_kbWkB-308" value="Sizes" style="shape=table;startSize=30;container=1;collapsible=1;childLayout=tableLayout;fixedRows=1;rowLines=0;fontStyle=1;align=center;resizeLast=1;labelBackgroundColor=none;fontFamily=Helvetica;fontSize=12;fillColor=#fad7ac;strokeColor=#000000;" vertex="1" parent="1">
          <mxGeometry x="1110" y="270" width="180" height="90" as="geometry" />
        </mxCell>
        <mxCell id="J7pDQWudLYsrYL_kbWkB-309" value="" style="shape=tableRow;horizontal=0;startSize=0;swimlaneHead=0;swimlaneBody=0;fillColor=none;collapsible=0;dropTarget=0;points=[[0,0.5],[1,0.5]];portConstraint=eastwest;top=0;left=0;right=0;bottom=1;labelBackgroundColor=none;strokeColor=#000000;fontFamily=Helvetica;fontSize=12;fontColor=#000000;" vertex="1" parent="J7pDQWudLYsrYL_kbWkB-308">
          <mxGeometry y="30" width="180" height="30" as="geometry" />
        </mxCell>
        <mxCell id="J7pDQWudLYsrYL_kbWkB-310" value="PK" style="shape=partialRectangle;connectable=0;fillColor=none;top=0;left=0;bottom=0;right=0;fontStyle=1;overflow=hidden;labelBackgroundColor=none;strokeColor=#000000;fontFamily=Helvetica;fontSize=12;fontColor=#000000;" vertex="1" parent="J7pDQWudLYsrYL_kbWkB-309">
          <mxGeometry width="30" height="30" as="geometry">
            <mxRectangle width="30" height="30" as="alternateBounds" />
          </mxGeometry>
        </mxCell>
        <mxCell id="J7pDQWudLYsrYL_kbWkB-311" value="ID" style="shape=partialRectangle;connectable=0;fillColor=none;top=0;left=0;bottom=0;right=0;align=left;spacingLeft=6;fontStyle=5;overflow=hidden;labelBackgroundColor=none;strokeColor=#000000;fontFamily=Helvetica;fontSize=12;fontColor=#000000;" vertex="1" parent="J7pDQWudLYsrYL_kbWkB-309">
          <mxGeometry x="30" width="150" height="30" as="geometry">
            <mxRectangle width="150" height="30" as="alternateBounds" />
          </mxGeometry>
        </mxCell>
        <mxCell id="J7pDQWudLYsrYL_kbWkB-312" value="" style="shape=tableRow;horizontal=0;startSize=0;swimlaneHead=0;swimlaneBody=0;fillColor=none;collapsible=0;dropTarget=0;points=[[0,0.5],[1,0.5]];portConstraint=eastwest;top=0;left=0;right=0;bottom=0;labelBackgroundColor=none;strokeColor=#000000;fontFamily=Helvetica;fontSize=12;fontColor=#000000;" vertex="1" parent="J7pDQWudLYsrYL_kbWkB-308">
          <mxGeometry y="60" width="180" height="30" as="geometry" />
        </mxCell>
        <mxCell id="J7pDQWudLYsrYL_kbWkB-313" value="" style="shape=partialRectangle;connectable=0;fillColor=none;top=0;left=0;bottom=0;right=0;editable=1;overflow=hidden;labelBackgroundColor=none;strokeColor=#000000;fontFamily=Helvetica;fontSize=12;fontColor=#000000;" vertex="1" parent="J7pDQWudLYsrYL_kbWkB-312">
          <mxGeometry width="30" height="30" as="geometry">
            <mxRectangle width="30" height="30" as="alternateBounds" />
          </mxGeometry>
        </mxCell>
        <mxCell id="J7pDQWudLYsrYL_kbWkB-314" value="Name" style="shape=partialRectangle;connectable=0;fillColor=none;top=0;left=0;bottom=0;right=0;align=left;spacingLeft=6;overflow=hidden;labelBackgroundColor=none;strokeColor=#000000;fontFamily=Helvetica;fontSize=12;fontColor=#000000;" vertex="1" parent="J7pDQWudLYsrYL_kbWkB-312">
          <mxGeometry x="30" width="150" height="30" as="geometry">
            <mxRectangle width="150" height="30" as="alternateBounds" />
          </mxGeometry>
        </mxCell>
        <mxCell id="J7pDQWudLYsrYL_kbWkB-315" value="" style="edgeStyle=entityRelationEdgeStyle;fontSize=12;html=1;endArrow=ERoneToMany;rounded=0;fontFamily=Helvetica;fontColor=#000000;entryX=1;entryY=0.5;entryDx=0;entryDy=0;exitX=0;exitY=0.5;exitDx=0;exitDy=0;" edge="1" parent="1" source="J7pDQWudLYsrYL_kbWkB-257" target="J7pDQWudLYsrYL_kbWkB-309">
          <mxGeometry width="100" height="100" relative="1" as="geometry">
            <mxPoint x="1570" y="520" as="sourcePoint" />
            <mxPoint x="1670" y="420" as="targetPoint" />
          </mxGeometry>
        </mxCell>
        <mxCell id="J7pDQWudLYsrYL_kbWkB-316" value="" style="edgeStyle=entityRelationEdgeStyle;fontSize=12;html=1;endArrow=ERoneToMany;rounded=0;fontFamily=Helvetica;fontColor=#000000;entryX=1;entryY=0.5;entryDx=0;entryDy=0;exitX=0;exitY=0.5;exitDx=0;exitDy=0;" edge="1" parent="1" source="J7pDQWudLYsrYL_kbWkB-254" target="J7pDQWudLYsrYL_kbWkB-302">
          <mxGeometry width="100" height="100" relative="1" as="geometry">
            <mxPoint x="1570" y="520" as="sourcePoint" />
            <mxPoint x="1670" y="420" as="targetPoint" />
          </mxGeometry>
        </mxCell>
        <mxCell id="J7pDQWudLYsrYL_kbWkB-317" value="Qualifications" style="shape=table;startSize=30;container=1;collapsible=1;childLayout=tableLayout;fixedRows=1;rowLines=0;fontStyle=1;align=center;resizeLast=1;labelBackgroundColor=none;fontFamily=Helvetica;fontSize=12;fillColor=#d5e8d4;strokeColor=#000000;gradientColor=#97d077;" vertex="1" parent="1">
          <mxGeometry x="1110" y="370" width="180" height="90" as="geometry" />
        </mxCell>
        <mxCell id="J7pDQWudLYsrYL_kbWkB-318" value="" style="shape=tableRow;horizontal=0;startSize=0;swimlaneHead=0;swimlaneBody=0;fillColor=none;collapsible=0;dropTarget=0;points=[[0,0.5],[1,0.5]];portConstraint=eastwest;top=0;left=0;right=0;bottom=1;labelBackgroundColor=none;strokeColor=#000000;fontFamily=Helvetica;fontSize=12;fontColor=#000000;" vertex="1" parent="J7pDQWudLYsrYL_kbWkB-317">
          <mxGeometry y="30" width="180" height="30" as="geometry" />
        </mxCell>
        <mxCell id="J7pDQWudLYsrYL_kbWkB-319" value="PK" style="shape=partialRectangle;connectable=0;fillColor=none;top=0;left=0;bottom=0;right=0;fontStyle=1;overflow=hidden;labelBackgroundColor=none;strokeColor=#000000;fontFamily=Helvetica;fontSize=12;fontColor=#000000;" vertex="1" parent="J7pDQWudLYsrYL_kbWkB-318">
          <mxGeometry width="30" height="30" as="geometry">
            <mxRectangle width="30" height="30" as="alternateBounds" />
          </mxGeometry>
        </mxCell>
        <mxCell id="J7pDQWudLYsrYL_kbWkB-320" value="ID" style="shape=partialRectangle;connectable=0;fillColor=none;top=0;left=0;bottom=0;right=0;align=left;spacingLeft=6;fontStyle=5;overflow=hidden;labelBackgroundColor=none;strokeColor=#000000;fontFamily=Helvetica;fontSize=12;fontColor=#000000;" vertex="1" parent="J7pDQWudLYsrYL_kbWkB-318">
          <mxGeometry x="30" width="150" height="30" as="geometry">
            <mxRectangle width="150" height="30" as="alternateBounds" />
          </mxGeometry>
        </mxCell>
        <mxCell id="J7pDQWudLYsrYL_kbWkB-321" value="" style="shape=tableRow;horizontal=0;startSize=0;swimlaneHead=0;swimlaneBody=0;fillColor=none;collapsible=0;dropTarget=0;points=[[0,0.5],[1,0.5]];portConstraint=eastwest;top=0;left=0;right=0;bottom=0;labelBackgroundColor=none;strokeColor=#000000;fontFamily=Helvetica;fontSize=12;fontColor=#000000;" vertex="1" parent="J7pDQWudLYsrYL_kbWkB-317">
          <mxGeometry y="60" width="180" height="30" as="geometry" />
        </mxCell>
        <mxCell id="J7pDQWudLYsrYL_kbWkB-322" value="" style="shape=partialRectangle;connectable=0;fillColor=none;top=0;left=0;bottom=0;right=0;editable=1;overflow=hidden;labelBackgroundColor=none;strokeColor=#000000;fontFamily=Helvetica;fontSize=12;fontColor=#000000;" vertex="1" parent="J7pDQWudLYsrYL_kbWkB-321">
          <mxGeometry width="30" height="30" as="geometry">
            <mxRectangle width="30" height="30" as="alternateBounds" />
          </mxGeometry>
        </mxCell>
        <mxCell id="J7pDQWudLYsrYL_kbWkB-323" value="Name" style="shape=partialRectangle;connectable=0;fillColor=none;top=0;left=0;bottom=0;right=0;align=left;spacingLeft=6;overflow=hidden;labelBackgroundColor=none;strokeColor=#000000;fontFamily=Helvetica;fontSize=12;fontColor=#000000;" vertex="1" parent="J7pDQWudLYsrYL_kbWkB-321">
          <mxGeometry x="30" width="150" height="30" as="geometry">
            <mxRectangle width="150" height="30" as="alternateBounds" />
          </mxGeometry>
        </mxCell>
        <mxCell id="J7pDQWudLYsrYL_kbWkB-324" value="" style="edgeStyle=entityRelationEdgeStyle;fontSize=12;html=1;endArrow=ERoneToMany;rounded=0;fontFamily=Helvetica;fontColor=#000000;exitX=0;exitY=0.5;exitDx=0;exitDy=0;" edge="1" parent="1" source="J7pDQWudLYsrYL_kbWkB-260" target="J7pDQWudLYsrYL_kbWkB-318">
          <mxGeometry width="100" height="100" relative="1" as="geometry">
            <mxPoint x="1320" y="490" as="sourcePoint" />
            <mxPoint x="1420" y="390" as="targetPoint" />
          </mxGeometry>
        </mxCell>
        <mxCell id="J7pDQWudLYsrYL_kbWkB-325" value="Returns" style="shape=table;startSize=25;container=1;collapsible=1;childLayout=tableLayout;fixedRows=1;rowLines=0;fontStyle=1;align=center;resizeLast=1;fillColor=#60a917;fontColor=#ffffff;strokeColor=#040405;" vertex="1" parent="1">
          <mxGeometry x="2140" y="935" width="180" height="155" as="geometry" />
        </mxCell>
        <mxCell id="J7pDQWudLYsrYL_kbWkB-326" value="" style="shape=tableRow;horizontal=0;startSize=0;swimlaneHead=0;swimlaneBody=0;fillColor=none;collapsible=0;dropTarget=0;points=[[0,0.5],[1,0.5]];portConstraint=eastwest;top=0;left=0;right=0;bottom=1;" vertex="1" parent="J7pDQWudLYsrYL_kbWkB-325">
          <mxGeometry y="25" width="180" height="30" as="geometry" />
        </mxCell>
        <mxCell id="J7pDQWudLYsrYL_kbWkB-327" value="PK" style="shape=partialRectangle;connectable=0;fillColor=none;top=0;left=0;bottom=0;right=0;fontStyle=1;overflow=hidden;" vertex="1" parent="J7pDQWudLYsrYL_kbWkB-326">
          <mxGeometry width="30" height="30" as="geometry">
            <mxRectangle width="30" height="30" as="alternateBounds" />
          </mxGeometry>
        </mxCell>
        <mxCell id="J7pDQWudLYsrYL_kbWkB-328" value="Id" style="shape=partialRectangle;connectable=0;fillColor=none;top=0;left=0;bottom=0;right=0;align=left;spacingLeft=6;fontStyle=5;overflow=hidden;" vertex="1" parent="J7pDQWudLYsrYL_kbWkB-326">
          <mxGeometry x="30" width="150" height="30" as="geometry">
            <mxRectangle width="150" height="30" as="alternateBounds" />
          </mxGeometry>
        </mxCell>
        <mxCell id="J7pDQWudLYsrYL_kbWkB-329" value="" style="shape=tableRow;horizontal=0;startSize=0;swimlaneHead=0;swimlaneBody=0;fillColor=none;collapsible=0;dropTarget=0;points=[[0,0.5],[1,0.5]];portConstraint=eastwest;top=0;left=0;right=0;bottom=0;" vertex="1" parent="J7pDQWudLYsrYL_kbWkB-325">
          <mxGeometry y="55" width="180" height="30" as="geometry" />
        </mxCell>
        <mxCell id="J7pDQWudLYsrYL_kbWkB-330" value="FK" style="shape=partialRectangle;connectable=0;fillColor=none;top=0;left=0;bottom=0;right=0;editable=1;overflow=hidden;fontStyle=1" vertex="1" parent="J7pDQWudLYsrYL_kbWkB-329">
          <mxGeometry width="30" height="30" as="geometry">
            <mxRectangle width="30" height="30" as="alternateBounds" />
          </mxGeometry>
        </mxCell>
        <mxCell id="J7pDQWudLYsrYL_kbWkB-331" value="OrderProductID" style="shape=partialRectangle;connectable=0;fillColor=none;top=0;left=0;bottom=0;right=0;align=left;spacingLeft=6;overflow=hidden;fontStyle=1" vertex="1" parent="J7pDQWudLYsrYL_kbWkB-329">
          <mxGeometry x="30" width="150" height="30" as="geometry">
            <mxRectangle width="150" height="30" as="alternateBounds" />
          </mxGeometry>
        </mxCell>
        <mxCell id="J7pDQWudLYsrYL_kbWkB-332" value="" style="shape=tableRow;horizontal=0;startSize=0;swimlaneHead=0;swimlaneBody=0;fillColor=none;collapsible=0;dropTarget=0;points=[[0,0.5],[1,0.5]];portConstraint=eastwest;top=0;left=0;right=0;bottom=0;fontStyle=1" vertex="1" parent="J7pDQWudLYsrYL_kbWkB-325">
          <mxGeometry y="85" width="180" height="20" as="geometry" />
        </mxCell>
        <mxCell id="J7pDQWudLYsrYL_kbWkB-333" value="FK" style="shape=partialRectangle;connectable=0;fillColor=none;top=0;left=0;bottom=0;right=0;editable=1;overflow=hidden;fontStyle=1" vertex="1" parent="J7pDQWudLYsrYL_kbWkB-332">
          <mxGeometry width="30" height="20" as="geometry">
            <mxRectangle width="30" height="20" as="alternateBounds" />
          </mxGeometry>
        </mxCell>
        <mxCell id="J7pDQWudLYsrYL_kbWkB-334" value="ReasonsId" style="shape=partialRectangle;connectable=0;fillColor=none;top=0;left=0;bottom=0;right=0;align=left;spacingLeft=6;overflow=hidden;fontStyle=1" vertex="1" parent="J7pDQWudLYsrYL_kbWkB-332">
          <mxGeometry x="30" width="150" height="20" as="geometry">
            <mxRectangle width="150" height="20" as="alternateBounds" />
          </mxGeometry>
        </mxCell>
        <mxCell id="J7pDQWudLYsrYL_kbWkB-335" value="" style="shape=tableRow;horizontal=0;startSize=0;swimlaneHead=0;swimlaneBody=0;fillColor=none;collapsible=0;dropTarget=0;points=[[0,0.5],[1,0.5]];portConstraint=eastwest;top=0;left=0;right=0;bottom=0;" vertex="1" parent="J7pDQWudLYsrYL_kbWkB-325">
          <mxGeometry y="105" width="180" height="25" as="geometry" />
        </mxCell>
        <mxCell id="J7pDQWudLYsrYL_kbWkB-336" value="" style="shape=partialRectangle;connectable=0;fillColor=none;top=0;left=0;bottom=0;right=0;editable=1;overflow=hidden;" vertex="1" parent="J7pDQWudLYsrYL_kbWkB-335">
          <mxGeometry width="30" height="25" as="geometry">
            <mxRectangle width="30" height="25" as="alternateBounds" />
          </mxGeometry>
        </mxCell>
        <mxCell id="J7pDQWudLYsrYL_kbWkB-337" value="Description" style="shape=partialRectangle;connectable=0;fillColor=none;top=0;left=0;bottom=0;right=0;align=left;spacingLeft=6;overflow=hidden;" vertex="1" parent="J7pDQWudLYsrYL_kbWkB-335">
          <mxGeometry x="30" width="150" height="25" as="geometry">
            <mxRectangle width="150" height="25" as="alternateBounds" />
          </mxGeometry>
        </mxCell>
        <mxCell id="J7pDQWudLYsrYL_kbWkB-338" value="" style="shape=tableRow;horizontal=0;startSize=0;swimlaneHead=0;swimlaneBody=0;fillColor=none;collapsible=0;dropTarget=0;points=[[0,0.5],[1,0.5]];portConstraint=eastwest;top=0;left=0;right=0;bottom=0;fontStyle=1" vertex="1" parent="J7pDQWudLYsrYL_kbWkB-325">
          <mxGeometry y="130" width="180" height="20" as="geometry" />
        </mxCell>
        <mxCell id="J7pDQWudLYsrYL_kbWkB-339" value="FK" style="shape=partialRectangle;connectable=0;fillColor=none;top=0;left=0;bottom=0;right=0;editable=1;overflow=hidden;fontStyle=1" vertex="1" parent="J7pDQWudLYsrYL_kbWkB-338">
          <mxGeometry width="30" height="20" as="geometry">
            <mxRectangle width="30" height="20" as="alternateBounds" />
          </mxGeometry>
        </mxCell>
        <mxCell id="J7pDQWudLYsrYL_kbWkB-340" value="StatuesId" style="shape=partialRectangle;connectable=0;fillColor=none;top=0;left=0;bottom=0;right=0;align=left;spacingLeft=6;overflow=hidden;fontStyle=1" vertex="1" parent="J7pDQWudLYsrYL_kbWkB-338">
          <mxGeometry x="30" width="150" height="20" as="geometry">
            <mxRectangle width="150" height="20" as="alternateBounds" />
          </mxGeometry>
        </mxCell>
        <mxCell id="J7pDQWudLYsrYL_kbWkB-341" value="" style="edgeStyle=entityRelationEdgeStyle;fontSize=12;html=1;endArrow=ERmandOne;startArrow=ERmandOne;rounded=0;fontColor=#040405;entryX=0;entryY=0.5;entryDx=0;entryDy=0;exitX=1;exitY=0.5;exitDx=0;exitDy=0;" edge="1" parent="1" source="J7pDQWudLYsrYL_kbWkB-204" target="J7pDQWudLYsrYL_kbWkB-329">
          <mxGeometry width="100" height="100" relative="1" as="geometry">
            <mxPoint x="2060" y="1190" as="sourcePoint" />
            <mxPoint x="2160" y="1090" as="targetPoint" />
          </mxGeometry>
        </mxCell>
        <mxCell id="J7pDQWudLYsrYL_kbWkB-342" value="Reasons" style="shape=table;startSize=25;container=1;collapsible=1;childLayout=tableLayout;fixedRows=1;rowLines=0;fontStyle=1;align=center;resizeLast=1;fillColor=#76608a;fontColor=#ffffff;strokeColor=#040405;" vertex="1" parent="1">
          <mxGeometry x="2150" y="790" width="180" height="90" as="geometry" />
        </mxCell>
        <mxCell id="J7pDQWudLYsrYL_kbWkB-343" value="" style="shape=tableRow;horizontal=0;startSize=0;swimlaneHead=0;swimlaneBody=0;fillColor=none;collapsible=0;dropTarget=0;points=[[0,0.5],[1,0.5]];portConstraint=eastwest;top=0;left=0;right=0;bottom=1;" vertex="1" parent="J7pDQWudLYsrYL_kbWkB-342">
          <mxGeometry y="25" width="180" height="35" as="geometry" />
        </mxCell>
        <mxCell id="J7pDQWudLYsrYL_kbWkB-344" value="PK" style="shape=partialRectangle;connectable=0;fillColor=none;top=0;left=0;bottom=0;right=0;fontStyle=1;overflow=hidden;" vertex="1" parent="J7pDQWudLYsrYL_kbWkB-343">
          <mxGeometry width="30" height="35" as="geometry">
            <mxRectangle width="30" height="35" as="alternateBounds" />
          </mxGeometry>
        </mxCell>
        <mxCell id="J7pDQWudLYsrYL_kbWkB-345" value="Id" style="shape=partialRectangle;connectable=0;fillColor=none;top=0;left=0;bottom=0;right=0;align=left;spacingLeft=6;fontStyle=5;overflow=hidden;" vertex="1" parent="J7pDQWudLYsrYL_kbWkB-343">
          <mxGeometry x="30" width="150" height="35" as="geometry">
            <mxRectangle width="150" height="35" as="alternateBounds" />
          </mxGeometry>
        </mxCell>
        <mxCell id="J7pDQWudLYsrYL_kbWkB-346" value="" style="shape=tableRow;horizontal=0;startSize=0;swimlaneHead=0;swimlaneBody=0;fillColor=none;collapsible=0;dropTarget=0;points=[[0,0.5],[1,0.5]];portConstraint=eastwest;top=0;left=0;right=0;bottom=0;" vertex="1" parent="J7pDQWudLYsrYL_kbWkB-342">
          <mxGeometry y="60" width="180" height="30" as="geometry" />
        </mxCell>
        <mxCell id="J7pDQWudLYsrYL_kbWkB-347" value="" style="shape=partialRectangle;connectable=0;fillColor=none;top=0;left=0;bottom=0;right=0;editable=1;overflow=hidden;fontStyle=1" vertex="1" parent="J7pDQWudLYsrYL_kbWkB-346">
          <mxGeometry width="30" height="30" as="geometry">
            <mxRectangle width="30" height="30" as="alternateBounds" />
          </mxGeometry>
        </mxCell>
        <mxCell id="J7pDQWudLYsrYL_kbWkB-348" value="Name" style="shape=partialRectangle;connectable=0;fillColor=none;top=0;left=0;bottom=0;right=0;align=left;spacingLeft=6;overflow=hidden;fontStyle=0" vertex="1" parent="J7pDQWudLYsrYL_kbWkB-346">
          <mxGeometry x="30" width="150" height="30" as="geometry">
            <mxRectangle width="150" height="30" as="alternateBounds" />
          </mxGeometry>
        </mxCell>
        <mxCell id="J7pDQWudLYsrYL_kbWkB-349" value="Statues" style="shape=table;startSize=25;container=1;collapsible=1;childLayout=tableLayout;fixedRows=1;rowLines=0;fontStyle=1;align=center;resizeLast=1;fillColor=#fad7ac;strokeColor=#040405;" vertex="1" parent="1">
          <mxGeometry x="2140" y="1130" width="180" height="90" as="geometry" />
        </mxCell>
        <mxCell id="J7pDQWudLYsrYL_kbWkB-350" value="" style="shape=tableRow;horizontal=0;startSize=0;swimlaneHead=0;swimlaneBody=0;fillColor=none;collapsible=0;dropTarget=0;points=[[0,0.5],[1,0.5]];portConstraint=eastwest;top=0;left=0;right=0;bottom=1;" vertex="1" parent="J7pDQWudLYsrYL_kbWkB-349">
          <mxGeometry y="25" width="180" height="30" as="geometry" />
        </mxCell>
        <mxCell id="J7pDQWudLYsrYL_kbWkB-351" value="PK" style="shape=partialRectangle;connectable=0;fillColor=none;top=0;left=0;bottom=0;right=0;fontStyle=1;overflow=hidden;" vertex="1" parent="J7pDQWudLYsrYL_kbWkB-350">
          <mxGeometry width="30" height="30" as="geometry">
            <mxRectangle width="30" height="30" as="alternateBounds" />
          </mxGeometry>
        </mxCell>
        <mxCell id="J7pDQWudLYsrYL_kbWkB-352" value="Id" style="shape=partialRectangle;connectable=0;fillColor=none;top=0;left=0;bottom=0;right=0;align=left;spacingLeft=6;fontStyle=5;overflow=hidden;" vertex="1" parent="J7pDQWudLYsrYL_kbWkB-350">
          <mxGeometry x="30" width="150" height="30" as="geometry">
            <mxRectangle width="150" height="30" as="alternateBounds" />
          </mxGeometry>
        </mxCell>
        <mxCell id="J7pDQWudLYsrYL_kbWkB-353" value="" style="shape=tableRow;horizontal=0;startSize=0;swimlaneHead=0;swimlaneBody=0;fillColor=none;collapsible=0;dropTarget=0;points=[[0,0.5],[1,0.5]];portConstraint=eastwest;top=0;left=0;right=0;bottom=0;" vertex="1" parent="J7pDQWudLYsrYL_kbWkB-349">
          <mxGeometry y="55" width="180" height="30" as="geometry" />
        </mxCell>
        <mxCell id="J7pDQWudLYsrYL_kbWkB-354" value="" style="shape=partialRectangle;connectable=0;fillColor=none;top=0;left=0;bottom=0;right=0;editable=1;overflow=hidden;fontStyle=1" vertex="1" parent="J7pDQWudLYsrYL_kbWkB-353">
          <mxGeometry width="30" height="30" as="geometry">
            <mxRectangle width="30" height="30" as="alternateBounds" />
          </mxGeometry>
        </mxCell>
        <mxCell id="J7pDQWudLYsrYL_kbWkB-355" value="Name" style="shape=partialRectangle;connectable=0;fillColor=none;top=0;left=0;bottom=0;right=0;align=left;spacingLeft=6;overflow=hidden;fontStyle=0" vertex="1" parent="J7pDQWudLYsrYL_kbWkB-353">
          <mxGeometry x="30" width="150" height="30" as="geometry">
            <mxRectangle width="150" height="30" as="alternateBounds" />
          </mxGeometry>
        </mxCell>
        <mxCell id="J7pDQWudLYsrYL_kbWkB-356" value="" style="edgeStyle=entityRelationEdgeStyle;fontSize=12;html=1;endArrow=ERoneToMany;rounded=0;fontColor=#040405;entryX=1;entryY=0.5;entryDx=0;entryDy=0;exitX=1;exitY=0.5;exitDx=0;exitDy=0;" edge="1" parent="1" source="J7pDQWudLYsrYL_kbWkB-343" target="J7pDQWudLYsrYL_kbWkB-332">
          <mxGeometry width="100" height="100" relative="1" as="geometry">
            <mxPoint x="2340" y="860" as="sourcePoint" />
            <mxPoint x="2430" y="750" as="targetPoint" />
          </mxGeometry>
        </mxCell>
        <mxCell id="J7pDQWudLYsrYL_kbWkB-357" value="" style="edgeStyle=entityRelationEdgeStyle;fontSize=12;html=1;endArrow=ERoneToMany;rounded=0;fontColor=#040405;exitX=1.004;exitY=0.3;exitDx=0;exitDy=0;exitPerimeter=0;entryX=1;entryY=0.5;entryDx=0;entryDy=0;" edge="1" parent="1" source="J7pDQWudLYsrYL_kbWkB-350" target="J7pDQWudLYsrYL_kbWkB-338">
          <mxGeometry width="100" height="100" relative="1" as="geometry">
            <mxPoint x="2340" y="1175" as="sourcePoint" />
            <mxPoint x="2440" y="1075" as="targetPoint" />
          </mxGeometry>
        </mxCell>
      </root>
    </mxGraphModel>
  </diagram>
</mxfile>
